<svg width="74" height="74" viewBox="0 0 74 74" fill="none" xmlns="http://www.w3.org/2000/svg">
<path d="M37.5205 60.737C34.5278 60.737 31.7585 60.201 29.2125 59.129C26.7111 58.0123 24.5671 56.2703 22.7805 53.903C21.0385 51.491 19.8101 48.3867 19.0955 44.59H14.4055V38.292H18.4255C18.4255 38.024 18.4255 37.8007 18.4255 37.622C18.4255 37.3987 18.4255 37.153 18.4255 36.885V35.545C18.4255 35.277 18.4255 35.0537 18.4255 34.875C18.4255 34.6517 18.4255 34.406 18.4255 34.138H14.4055V27.84H19.1625C19.9665 24.222 21.2395 21.274 22.9815 18.996C24.7681 16.718 26.9121 15.043 29.4135 13.971C31.9148 12.899 34.6171 12.363 37.5205 12.363C39.9325 12.363 42.1658 12.698 44.2205 13.368C46.2751 13.9933 48.0841 14.9537 49.6475 16.249C51.2555 17.5443 52.5285 19.1523 53.4665 21.073C54.4491 22.9937 55.0521 25.2493 55.2755 27.84H46.8335C46.4761 25.8747 45.8508 24.289 44.9575 23.083C44.1088 21.8323 43.0591 20.9167 41.8085 20.336C40.5578 19.7553 39.1285 19.465 37.5205 19.465C35.5551 19.465 33.6568 20.0903 31.8255 21.341C30.0388 22.5917 28.6988 24.758 27.8055 27.84H40.5355V34.138H26.8675C26.8675 34.406 26.8675 34.6517 26.8675 34.875C26.8675 35.0537 26.8675 35.277 26.8675 35.545V36.885C26.8675 37.153 26.8675 37.3987 26.8675 37.622C26.8675 37.8007 26.8675 38.024 26.8675 38.292H40.5355V44.59H27.7385C28.3638 46.868 29.1901 48.677 30.2175 50.017C31.2895 51.3123 32.4731 52.2503 33.7685 52.831C35.0638 53.367 36.3145 53.635 37.5205 53.635C39.4411 53.635 41.0268 53.3 42.2775 52.63C43.5728 51.96 44.6001 50.9997 45.3595 49.749C46.1188 48.4537 46.6101 46.9573 46.8335 45.26H55.2755C55.0075 48.0293 54.3821 50.3967 53.3995 52.362C52.4168 54.3273 51.1438 55.9353 49.5805 57.186C48.0171 58.392 46.2081 59.2853 44.1535 59.866C42.0988 60.4467 39.8878 60.737 37.5205 60.737Z" fill="white"/>
<rect x="1.5" y="1.5" width="71" height="71" rx="35.5" stroke="white" stroke-width="3"/>
</svg>
