<svg width="74" height="74" viewBox="0 0 74 74" fill="none" xmlns="http://www.w3.org/2000/svg">
<g clip-path="url(#clip0_2019_72)">
<path d="M30 37C37.732 37 44 30.732 44 23C44 15.268 37.732 8.99998 30 8.99998C22.268 8.99998 16 15.268 16 23C16 30.732 22.268 37 30 37Z" fill="white"/>
<path d="M39.4337 41.6659H20.5663C17.4999 41.6696 14.5601 42.8894 12.3918 45.0577C10.2235 47.226 9.00369 50.1658 8.99998 53.2322L8.99998 64.9992H51V53.2322C50.9963 50.1658 49.7765 47.226 47.6082 45.0577C45.4399 42.8894 42.5001 41.6696 39.4337 41.6659V41.6659Z" fill="white"/>
<path d="M60.333 27.375C59.0345 27.4397 57.8144 28.0161 56.9398 28.9782C56.0653 29.9402 55.6074 31.2095 55.6664 32.5083C55.7254 31.2095 55.2675 29.9402 54.3929 28.9782C53.5183 28.0161 52.2983 27.4397 50.9997 27.375C49.7012 27.4397 48.4811 28.0161 47.6065 28.9782C46.732 29.9402 46.2741 31.2095 46.3331 32.5083C46.3331 37.875 55.6664 44.4853 55.6664 44.4853C55.6664 44.4853 64.9997 37.8843 64.9997 32.5083C65.0587 31.2095 64.6008 29.9402 63.7262 28.9782C62.8516 28.0161 61.6316 27.4397 60.333 27.375V27.375Z" fill="white"/>
</g>
<defs>
<clipPath id="clip0_2019_72">
<rect width="56" height="56" fill="white" transform="translate(9 9)"/>
</clipPath>
</defs>
</svg>
