<svg width="75" height="34" viewBox="0 0 75 34" fill="none" xmlns="http://www.w3.org/2000/svg">
<path d="M32.376 13.182C30.8453 13.182 29.674 12.8974 28.862 12.328C28.0593 11.7587 27.658 10.9327 27.658 9.85003V9.71003H30.388V9.85003C30.388 10.1674 30.57 10.4147 30.934 10.592C31.298 10.76 31.8113 10.844 32.474 10.844C33.678 10.844 34.28 10.6434 34.28 10.242V10.158C34.28 9.90603 33.9767 9.73337 33.37 9.64003L30.78 9.23403C29.772 9.07537 29.0207 8.78603 28.526 8.36603C28.0313 7.94603 27.784 7.38603 27.784 6.68603V6.54603C27.784 5.62203 28.176 4.90803 28.96 4.40403C29.744 3.8907 30.8453 3.63403 32.264 3.63403C33.7667 3.63403 34.9147 3.90937 35.708 4.46003C36.5107 5.00137 36.912 5.7807 36.912 6.79803V6.91003H34.21V6.79803C34.21 6.51803 34.0513 6.3127 33.734 6.18203C33.4167 6.04203 32.9267 5.97203 32.264 5.97203C31.144 5.97203 30.584 6.14003 30.584 6.47603V6.56003C30.584 6.6627 30.6493 6.75137 30.78 6.82603C30.92 6.89137 31.1487 6.94737 31.466 6.99403L34.07 7.40003C35.106 7.5587 35.876 7.85737 36.38 8.29603C36.884 8.72537 37.136 9.30403 37.136 10.032V10.172C37.136 11.124 36.716 11.866 35.876 12.398C35.0453 12.9207 33.8787 13.182 32.376 13.182Z" fill="white"/>
<path d="M48.0059 3.81603V4.23603L44.2679 13H41.0199L37.2819 4.23603V3.81603H40.1659L42.6299 10.088L45.0939 3.81603H48.0059Z" fill="white"/>
<path d="M57.4353 3.81603V6.22403H51.7373V7.21803H57.1553V9.58403H51.7373V10.592H57.4353V13H48.9233V3.81603H57.4353Z" fill="white"/>
<path d="M58.3545 6.33603V3.81603H67.6085V6.33603H64.3885V13H61.5745V6.33603H58.3545Z" fill="white"/>
<path d="M33.132 23.182C32.0027 23.182 31.0087 22.9907 30.15 22.608C29.2913 22.216 28.624 21.6607 28.148 20.942C27.6813 20.2234 27.448 19.3927 27.448 18.45V18.38C27.448 17.4374 27.6813 16.6067 28.148 15.888C28.624 15.1694 29.2913 14.614 30.15 14.222C31.0087 13.83 32.0027 13.634 33.132 13.634C34.28 13.634 35.2833 13.83 36.142 14.222C37.0007 14.614 37.6633 15.1694 38.13 15.888C38.5967 16.5974 38.83 17.428 38.83 18.38V18.45C38.83 19.402 38.5967 20.2374 38.13 20.956C37.6633 21.6654 37.0007 22.216 36.142 22.608C35.2833 22.9907 34.28 23.182 33.132 23.182ZM33.132 20.564C34.1027 20.564 34.8167 20.396 35.274 20.06C35.7313 19.7147 35.96 19.192 35.96 18.492V18.352C35.96 16.952 35.0173 16.252 33.132 16.252C32.208 16.252 31.508 16.4294 31.032 16.784C30.556 17.1387 30.318 17.6614 30.318 18.352V18.492C30.318 19.192 30.5513 19.7147 31.018 20.06C31.4847 20.396 32.1893 20.564 33.132 20.564Z" fill="white"/>
<path d="M51.1353 17.778V23H48.6433L48.5873 22.454C48.1767 22.7154 47.738 22.902 47.2713 23.014C46.8047 23.126 46.2447 23.182 45.5913 23.182C44.406 23.182 43.37 22.9907 42.4833 22.608C41.5967 22.216 40.9153 21.6654 40.4393 20.956C39.9633 20.2467 39.7253 19.4114 39.7253 18.45V18.38C39.7253 17.428 39.9633 16.5974 40.4393 15.888C40.9153 15.1694 41.5873 14.614 42.4553 14.222C43.3233 13.83 44.336 13.634 45.4933 13.634C46.6507 13.634 47.6493 13.7694 48.4893 14.04C49.3387 14.3014 49.9873 14.684 50.4353 15.188C50.8927 15.692 51.1213 16.2894 51.1213 16.98V17.022H48.2513V16.98C48.2513 16.8307 48.13 16.6954 47.8873 16.574C47.6447 16.4434 47.3227 16.3407 46.9213 16.266C46.52 16.182 46.0907 16.14 45.6333 16.14C43.608 16.14 42.5953 16.8774 42.5953 18.352V18.492C42.5953 19.2294 42.8427 19.7754 43.3373 20.13C43.832 20.4847 44.5973 20.662 45.6333 20.662C46.884 20.662 47.8313 20.48 48.4753 20.116V19.85H44.1213V17.778H51.1353Z" fill="white"/>
<path d="M57.714 23.182C56.5847 23.182 55.5907 22.9907 54.732 22.608C53.8734 22.216 53.206 21.6607 52.73 20.942C52.2634 20.2234 52.03 19.3927 52.03 18.45V18.38C52.03 17.4374 52.2634 16.6067 52.73 15.888C53.206 15.1694 53.8734 14.614 54.732 14.222C55.5907 13.83 56.5847 13.634 57.714 13.634C58.862 13.634 59.8654 13.83 60.724 14.222C61.5827 14.614 62.2454 15.1694 62.712 15.888C63.1787 16.5974 63.412 17.428 63.412 18.38V18.45C63.412 19.402 63.1787 20.2374 62.712 20.956C62.2454 21.6654 61.5827 22.216 60.724 22.608C59.8654 22.9907 58.862 23.182 57.714 23.182ZM57.714 20.564C58.6847 20.564 59.3987 20.396 59.856 20.06C60.3134 19.7147 60.542 19.192 60.542 18.492V18.352C60.542 16.952 59.5994 16.252 57.714 16.252C56.79 16.252 56.09 16.4294 55.614 16.784C55.138 17.1387 54.9 17.6614 54.9 18.352V18.492C54.9 19.192 55.1334 19.7147 55.6 20.06C56.0667 20.396 56.7714 20.564 57.714 20.564Z" fill="white"/>
<path d="M74.4294 17.05C74.4294 17.7874 74.21 18.3847 73.7714 18.842C73.342 19.2994 72.7167 19.598 71.8954 19.738L74.3734 22.58V23H71.1954L68.5914 19.836H67.5694V23H64.7554V13.816H70.7334C71.8814 13.816 72.782 14.0914 73.4354 14.642C74.098 15.1927 74.4294 15.9487 74.4294 16.91V17.05ZM67.5694 17.75H70.6634C71.2607 17.75 71.5594 17.5214 71.5594 17.064V16.924C71.5594 16.476 71.2607 16.252 70.6634 16.252H67.5694V17.75Z" fill="white"/>
<path d="M32.376 33.182C30.8453 33.182 29.674 32.8974 28.862 32.328C28.0593 31.7587 27.658 30.9327 27.658 29.85V29.71H30.388V29.85C30.388 30.1674 30.57 30.4147 30.934 30.592C31.298 30.76 31.8113 30.844 32.474 30.844C33.678 30.844 34.28 30.6434 34.28 30.242V30.158C34.28 29.906 33.9767 29.7334 33.37 29.64L30.78 29.234C29.772 29.0754 29.0207 28.786 28.526 28.366C28.0313 27.946 27.784 27.386 27.784 26.686V26.546C27.784 25.622 28.176 24.908 28.96 24.404C29.744 23.8907 30.8453 23.634 32.264 23.634C33.7667 23.634 34.9147 23.9094 35.708 24.46C36.5107 25.0014 36.912 25.7807 36.912 26.798V26.91H34.21V26.798C34.21 26.518 34.0513 26.3127 33.734 26.182C33.4167 26.042 32.9267 25.972 32.264 25.972C31.144 25.972 30.584 26.14 30.584 26.476V26.56C30.584 26.6627 30.6493 26.7514 30.78 26.826C30.92 26.8914 31.1487 26.9474 31.466 26.994L34.07 27.4C35.106 27.5587 35.876 27.8574 36.38 28.296C36.884 28.7254 37.136 29.304 37.136 30.032V30.172C37.136 31.124 36.716 31.866 35.876 32.398C35.0453 32.9207 33.8787 33.182 32.376 33.182Z" fill="white"/>
<path d="M48.3213 24.236L44.4993 27.834L48.0553 32.58V33H44.9193L42.3153 29.458L41.0693 30.69V33H38.2553V23.816H41.0693V27.582L45.0313 23.816H48.3213V24.236Z" fill="white"/>
<path d="M59.5 32.58V33H56.756L56.154 31.488H52.122L51.52 33H48.776V32.58L52.584 23.816H55.692L59.5 32.58ZM55.216 29.164L54.138 26.49L53.06 29.164H55.216Z" fill="white"/>
<path fill-rule="evenodd" clip-rule="evenodd" d="M0 12.7038V6.5L24 0V11.88H11.3169V15.48H19.8969C18.2035 17.16 16.9035 18.78 15.9969 20.34C15.1035 21.8867 14.6569 23.2733 14.6569 24.5V25H19.3169V24.5C19.3169 23.3267 19.7835 21.9533 20.7169 20.38C21.5335 19.0229 22.6278 17.6211 24 16.1746V33H0V25H11.2V21.86H5.02L7.18 20.68C8.52667 19.9467 9.50667 19.2133 10.12 18.48C10.7333 17.7333 11.04 16.94 11.04 16.1V15.9C11.04 14.5533 10.4733 13.5067 9.34 12.76C8.20667 12 6.62 11.62 4.58 11.62C2.59132 11.62 1.06465 11.9813 0 12.7038ZM0 17.06V20.9458L5.08 18.14C5.82667 17.7267 6.32667 17.3933 6.58 17.14C6.84667 16.8867 6.98 16.6133 6.98 16.32V16.16C6.98 15.7467 6.78 15.4333 6.38 15.22C5.98 15.0067 5.4 14.9 4.64 14.9C3.78667 14.9 3.13333 15.0533 2.68 15.36C2.24 15.6533 2.02 16.0867 2.02 16.66V17.06H0Z" fill="white"/>
</svg>
