<svg width="164" height="36" viewBox="0 0 164 36" fill="none" xmlns="http://www.w3.org/2000/svg">
<g clip-path="url(#clip0_5_16)">
<path d="M27.1431 0H8.5715C3.83759 0 0 3.83759 0 8.5715V27.1431C0 31.877 3.83759 35.7146 8.5715 35.7146H27.1431C31.877 35.7146 35.7146 31.877 35.7146 27.1431V8.5715C35.7146 3.83759 31.877 0 27.1431 0Z" fill="url(#paint0_linear_5_16)"/>
<path d="M23.9337 15.7141L11.5482 23.1828C10.819 23.6203 9.8815 23.0995 9.8815 22.2453V13.912C9.8815 10.2765 13.8086 8.00563 16.9649 9.81815L21.7462 12.5682L23.9233 13.8182C24.642 14.2453 24.6525 15.287 23.9337 15.7141Z" fill="white"/>
<path d="M24.5563 21.8192L20.3375 24.2568L16.1292 26.6839C14.6188 27.5485 12.9104 27.3714 11.6708 26.4964C11.0667 26.0797 11.1395 25.1526 11.775 24.7776L25.0146 16.8401C25.6396 16.4651 26.4626 16.8192 26.5771 17.538C26.8376 19.1526 26.1709 20.8922 24.5563 21.8192Z" fill="white" fill-opacity="0.6"/>
</g>
<path d="M56.2801 8.44162H60.7363V21.3719C60.7302 22.5834 60.441 23.6426 59.8688 24.5497C59.2965 25.4507 58.5051 26.1508 57.4946 26.65C56.4901 27.1492 55.3273 27.3988 54.0063 27.3988C52.8375 27.3988 51.7752 27.1948 50.8194 26.7869C49.8697 26.3791 49.1118 25.7459 48.5456 24.8876C47.9856 24.0292 47.7086 22.9304 47.7147 21.5911H52.2165C52.2348 22.072 52.3261 22.4829 52.4905 22.8238C52.6609 23.1587 52.8953 23.4113 53.1936 23.5818C53.4919 23.7522 53.848 23.8374 54.262 23.8374C54.6942 23.8374 55.0595 23.7461 55.3578 23.5635C55.6561 23.3748 55.8813 23.0978 56.0335 22.7325C56.1918 22.3673 56.274 21.9137 56.2801 21.3719V8.44162Z" fill="white"/>
<path d="M63.0596 27.1431V8.44162H76.0995V12.1125H67.5797V15.9478H75.4329V19.6278H67.5797V23.4722H76.0995V27.1431H63.0596Z" fill="white"/>
<path d="M77.8042 12.1125V8.44162H93.6109V12.1125H87.9402V27.1431H83.484V12.1125H77.8042Z" fill="white"/>
<path d="M106.723 14.5506C106.62 14.1671 106.468 13.8292 106.267 13.537C106.066 13.2387 105.819 12.9861 105.527 12.7791C105.235 12.5721 104.9 12.4169 104.522 12.3134C104.145 12.2038 103.731 12.149 103.281 12.149C102.374 12.149 101.588 12.3682 100.925 12.8065C100.267 13.2448 99.7589 13.884 99.3997 14.7241C99.0405 15.5582 98.8609 16.5718 98.8609 17.765C98.8609 18.9642 99.0344 19.987 99.3814 20.8332C99.7284 21.6793 100.231 22.3246 100.888 22.769C101.546 23.2135 102.343 23.4357 103.281 23.4357C104.109 23.4357 104.809 23.3017 105.381 23.0339C105.959 22.7599 106.398 22.3733 106.696 21.8742C106.994 21.375 107.143 20.7875 107.143 20.1118L107.983 20.2122H103.436V16.9157H111.499V19.3904C111.499 21.0645 111.143 22.4981 110.431 23.6913C109.724 24.8845 108.75 25.8007 107.509 26.4399C106.273 27.0791 104.851 27.3988 103.244 27.3988C101.46 27.3988 99.8928 27.0122 98.5413 26.239C97.1898 25.4659 96.1367 24.364 95.3818 22.9334C94.6269 21.4967 94.2495 19.7922 94.2495 17.8197C94.2495 16.2856 94.4778 14.925 94.9343 13.7379C95.3909 12.5447 96.0271 11.5342 96.8428 10.7063C97.6647 9.87832 98.6144 9.25129 99.6919 8.82515C100.776 8.39901 101.941 8.18594 103.189 8.18594C104.273 8.18594 105.28 8.34118 106.212 8.65165C107.149 8.96212 107.977 9.40044 108.696 9.9666C109.42 10.5328 110.008 11.2054 110.458 11.9847C110.908 12.7639 111.189 13.6192 111.298 14.5506H106.723Z" fill="white"/>
<path d="M131.3 17.7923C131.3 19.85 130.904 21.5941 130.113 23.0247C129.322 24.4553 128.25 25.542 126.899 26.2847C125.553 27.0274 124.044 27.3988 122.369 27.3988C120.689 27.3988 119.176 27.0244 117.831 26.2756C116.486 25.5268 115.417 24.4401 114.626 23.0156C113.841 21.585 113.448 19.8439 113.448 17.7923C113.448 15.7347 113.841 13.9906 114.626 12.56C115.417 11.1293 116.486 10.0427 117.831 9.29999C119.176 8.55729 120.689 8.18594 122.369 8.18594C124.044 8.18594 125.553 8.55729 126.899 9.29999C128.25 10.0427 129.322 11.1293 130.113 12.56C130.904 13.9906 131.3 15.7347 131.3 17.7923ZM126.68 17.7923C126.68 16.5748 126.506 15.546 126.159 14.7059C125.818 13.8658 125.325 13.2296 124.68 12.7974C124.041 12.3652 123.27 12.149 122.369 12.149C121.475 12.149 120.705 12.3652 120.059 12.7974C119.414 13.2296 118.918 13.8658 118.571 14.7059C118.23 15.546 118.059 16.5748 118.059 17.7923C118.059 19.0099 118.23 20.0387 118.571 20.8788C118.918 21.7189 119.414 22.3551 120.059 22.7873C120.705 23.2195 121.475 23.4357 122.369 23.4357C123.27 23.4357 124.041 23.2195 124.68 22.7873C125.325 22.3551 125.818 21.7189 126.159 20.8788C126.506 20.0387 126.68 19.0099 126.68 17.7923Z" fill="white"/>
<path d="M133.425 27.1431V8.44162H137.945V23.4722H145.725V27.1431H133.425Z" fill="white"/>
<path d="M154.463 27.1431H147.551V8.44162H154.454C156.36 8.44162 158 8.81602 159.376 9.56481C160.758 10.3075 161.823 11.3789 162.572 12.7791C163.321 14.1732 163.695 15.8412 163.695 17.7832C163.695 19.7313 163.321 21.4054 162.572 22.8056C161.83 24.2057 160.767 25.2802 159.385 26.029C158.003 26.7717 156.363 27.1431 154.463 27.1431ZM152.071 23.2895H154.29C155.337 23.2895 156.223 23.113 156.947 22.7599C157.678 22.4007 158.229 21.8194 158.6 21.0158C158.977 20.2061 159.166 19.1286 159.166 17.7832C159.166 16.4378 158.977 15.3664 158.6 14.5689C158.223 13.7653 157.666 13.187 156.929 12.8339C156.198 12.4747 155.297 12.2951 154.226 12.2951H152.071V23.2895Z" fill="white"/>
<defs>
<linearGradient id="paint0_linear_5_16" x1="2.66094e-07" y1="17.8573" x2="35.7146" y2="17.8573" gradientUnits="userSpaceOnUse">
<stop stop-color="#4E95FF"/>
<stop offset="1" stop-color="#376FFF"/>
</linearGradient>
<clipPath id="clip0_5_16">
<rect width="35.7146" height="35.7146" fill="white"/>
</clipPath>
</defs>
</svg>
