<?xml version="1.0" encoding="utf-8"?><svg viewBox="0 0 215 128" xmlns="http://www.w3.org/2000/svg" xmlns:xlink="http://www.w3.org/1999/xlink"><style>:root>svg{display:none}:root>svg:target{display:block}</style><svg viewBox="0 0 165 34" id="apartments-bg" xmlns="http://www.w3.org/2000/svg"><path d="M0 0h160a5 5 0 015 5v24a5 5 0 01-5 5H0l13.916-17L0 0z"/></svg><svg viewBox="0 0 72 72" id="clear" xmlns="http://www.w3.org/2000/svg"><path d="M14.133 10.406c0 .035-.169.07-.38.07-.21 0-.408.029-.429.07-.02.036-.147.071-.281.071-.134 0-.26.028-.281.07-.021.036-.12.07-.211.07-.092 0-.19.029-.211.071-.021.035-.106.07-.183.07-.07 0-.134.029-.134.07 0 .036-.091.071-.21.071-.113 0-.211.028-.211.07 0 .036-.064.07-.141.07-.077 0-.14.029-.14.071 0 .035-.064.07-.141.07-.078 0-.14.028-.14.07 0 .036-.05.07-.106.07-.064 0-.176.064-.26.142-.085.077-.197.14-.247.14-.049 0-.091.028-.091.07 0 .036-.042.07-.098.07-.05 0-.19.092-.31.212-.126.112-.253.21-.288.21-.085 0-1.554 1.45-1.554 1.534 0 .035-.098.161-.211.28-.12.127-.21.268-.21.317 0 .05-.064.134-.142.19-.077.056-.14.155-.14.225s-.028.127-.07.127c-.036 0-.07.063-.07.14 0 .077-.022.14-.05.14-.063 0-.232.345-.232.472 0 .05-.028.091-.07.091-.036 0-.07.064-.07.14 0 .078-.029.142-.071.142-.035 0-.07.063-.07.133 0 .078-.028.162-.07.183-.036.021-.07.12-.07.21 0 .092-.029.19-.071.212-.035.02-.07.154-.07.288 0 .134-.029.24-.07.24-.036 0-.071.126-.071.28 0 .155-.028.282-.07.282-.043 0-.07.218-.07.52 0 .288-.029.548-.071.57-.092.056-.092 1.49 0 1.546.042.021.07.275.07.563 0 .288.035.541.07.562.043.021.07.17.07.317 0 .148.036.295.071.316.042.021.07.169.07.324 0 .372.127.485.52.485.177 0 .324.028.324.07 0 .035.14.07.31.07.175 0 .337.029.358.07.021.036.134.071.253.071.113 0 .204.028.204.07 0 .035.099.07.211.07.12 0 .211.029.211.071 0 .035.063.07.14.07.078 0 .141.028.141.07 0 .036.064.07.141.07.077 0 .14.03.14.071 0 .035.064.07.141.07.078 0 .14.029.14.07 0 .036.064.071.141.071.078 0 .141.028.141.07 0 .036.056.07.127.07.07 0 .168.064.225.141.056.078.147.141.197.141.056 0 .19.091.295.211.105.113.232.21.274.21.091 0 1.132 1.042 1.132 1.133 0 .042.098.169.211.274.12.106.21.24.21.296 0 .049.064.14.142.196.077.057.14.155.14.225s.035.127.07.127c.043 0 .07.063.07.14 0 .078.036.141.071.141.042 0 .07.063.07.14 0 .078.036.141.07.141.043 0 .071.064.071.141 0 .077.035.14.07.14.043 0 .07.064.07.134 0 .078.036.162.071.183.042.021.07.12.07.211s.035.19.07.211c.043.021.07.155.07.288 0 .134.036.24.071.24.042 0 .07.126.07.273 0 .155.036.303.07.324.043.021.071.183.071.352 0 .168.035.33.07.351.043.021.07.183.07.352 0 .168.036.33.071.351.042.021.07.197.07.387s.036.366.07.387c.043.02.071.183.071.351 0 .169.035.33.07.352.043.02.07.183.07.351 0 .17.036.33.071.352.042.021.07.183.07.352 0 .168.035.33.07.351.043.021.07.183.07.352 0 .168.036.33.071.351.042.021.07.183.07.352 0 .169.036.33.07.351.043.021.071.183.071.352 0 .169.035.33.07.351.043.021.07.183.07.352 0 .169.036.33.071.352.042.02.07.182.07.351 0 .169.036.33.07.352.043.02.071.183.071.351 0 .169.035.33.07.352.043.02.07.105.07.176 0 .499.957 1.406 1.477 1.406.12 0 .211.028.211.07 0 .05 6.258.07 18.633.07s18.633-.02 18.633-.07c0-.042.077-.07.169-.07.534 0 1.518-.907 1.518-1.406 0-.07.035-.155.07-.176.043-.021.07-.183.07-.352 0-.168.03-.33.071-.351.042-.021.07-.183.07-.352 0-.169.036-.33.07-.352.043-.02.071-.182.071-.351 0-.169.028-.33.07-.352.043-.02.07-.182.07-.351 0-.169.036-.33.071-.352.042-.02.07-.182.07-.351 0-.169.029-.33.07-.352.043-.02.071-.183.071-.351 0-.17.028-.33.07-.352.043-.021.07-.183.07-.352 0-.168.036-.33.071-.351.042-.021.07-.183.07-.352 0-.168.028-.33.07-.351.043-.021.07-.183.07-.352 0-.168.036-.33.071-.351.042-.021.07-.183.07-.352 0-.169.036-.33.07-.351.043-.022.071-.183.071-.352 0-.169.035-.33.07-.352.043-.02.07-.182.07-.351 0-.169.036-.33.071-.352.042-.02.07-.183.07-.358 0-.17.036-.31.07-.31.043 0 .071-.105.071-.239 0-.133.035-.267.07-.288.043-.021.07-.12.07-.211s.036-.19.071-.21c.042-.022.07-.106.07-.184 0-.07.035-.133.07-.133.043 0 .07-.064.07-.14 0-.078.036-.142.071-.142.042 0 .07-.063.07-.14 0-.078.036-.14.07-.14.043 0 .071-.064.071-.141 0-.078.035-.141.07-.141.043 0 .07-.056.07-.127 0-.07.064-.168.141-.225.078-.056.141-.147.141-.197 0-.056.099-.19.211-.295.112-.105.21-.232.21-.267 0-.098 1.027-1.14 1.126-1.14.05 0 .176-.098.281-.21.106-.12.24-.21.296-.21.049 0 .14-.064.196-.142.057-.077.155-.14.225-.14s.127-.035.127-.07c0-.043.063-.07.14-.07.078 0 .141-.036.141-.071 0-.042.064-.07.14-.07.078 0 .141-.036.141-.07 0-.043.064-.071.141-.071.077 0 .14-.035.14-.07 0-.043.064-.07.141-.07.078 0 .14-.036.14-.071 0-.042.1-.07.212-.07.12 0 .21-.035.21-.07 0-.043.092-.07.205-.07.12 0 .232-.036.253-.071.02-.042.183-.07.358-.07.296 0 .31-.008.31-.204 0-.12.035-.233.07-.254.042-.02.07-.218.07-.428 0-.211.036-.38.07-.38.043 0 .071-.19.071-.422 0-.232.028-.422.07-.422.043 0 .07-.492.07-1.336 0-.844-.027-1.336-.07-1.336-.035 0-.07-.169-.07-.38 0-.21-.028-.407-.07-.428-.035-.021-.07-.148-.07-.282 0-.133-.029-.26-.07-.28-.036-.022-.071-.134-.071-.254 0-.112-.028-.204-.07-.204-.036 0-.07-.077-.07-.169 0-.098-.029-.197-.071-.218-.035-.02-.07-.105-.07-.183 0-.07-.029-.133-.07-.133-.036 0-.071-.063-.071-.14 0-.078-.028-.141-.07-.141-.035 0-.07-.064-.07-.14 0-.078-.029-.142-.071-.142-.035 0-.07-.063-.07-.14 0-.077-.028-.14-.07-.14-.036 0-.07-.057-.07-.127s-.064-.17-.142-.225c-.077-.057-.14-.148-.14-.211 0-.064-.064-.155-.14-.211-.078-.056-.141-.14-.141-.19 0-.19-1.8-1.99-1.99-1.99-.05 0-.134-.063-.19-.14-.056-.078-.148-.141-.211-.141s-.155-.063-.211-.14c-.056-.078-.155-.141-.225-.141s-.127-.036-.127-.07c0-.043-.063-.071-.14-.071-.078 0-.14-.035-.14-.07 0-.043-.064-.07-.141-.07-.078 0-.141-.036-.141-.071 0-.042-.063-.07-.14-.07-.078 0-.141-.035-.141-.07 0-.043-.064-.07-.14-.07-.078 0-.142-.036-.142-.071 0-.042-.091-.07-.21-.07-.113 0-.211-.036-.211-.07 0-.043-.092-.071-.211-.071-.113 0-.211-.035-.211-.07 0-.043-.127-.07-.282-.07-.154 0-.28-.036-.28-.071 0-.042-.19-.07-.423-.07-.232 0-.422-.029-.422-.07 0-.05-7.193-.071-21.445-.071s-21.445.021-21.445.07z"/><path d="M4.816 25.172c-.02.035-.182.07-.358.07-.169 0-.31.028-.31.07 0 .036-.091.07-.21.07-.113 0-.211.029-.211.071 0 .035-.064.07-.141.07-.077 0-.14.029-.14.07 0 .036-.064.071-.141.071-.078 0-.14.028-.14.07 0 .035-.064.07-.142.07-.077 0-.14.029-.14.071 0 .035-.056.07-.127.07-.07 0-.168.064-.225.14-.056.078-.14.142-.19.142-.098 0-1.286 1.153-1.286 1.251 0 .035-.057.12-.12.197-.239.267-.583.914-.583 1.083 0 .077-.029.14-.07.14-.036 0-.071.092-.071.204 0 .113-.042.218-.084.24-.12.035-.106 6.257.007 6.292.049.014.077.394.077 1.076 0 .654.028 1.048.07 1.048.042 0 .07.4.07 1.054s.029 1.055.07 1.055c.043 0 .071.401.071 1.055 0 .654.028 1.055.07 1.055.043 0 .07.421.07 1.117 0 .675.029 1.14.071 1.168.042.02.07.246.07.492s.036.471.07.492c.043.021.071.183.071.359 0 .168.035.31.07.31.043 0 .07.09.07.21 0 .112.036.21.071.21.042 0 .07.092.07.212 0 .112.035.21.07.21.043 0 .07.064.07.141 0 .078.036.141.071.141.042 0 .07.063.07.14 0 .078.036.141.07.141.043 0 .071.042.071.092 0 .126.169.47.232.47.028 0 .05.064.05.141 0 .078.035.141.07.141.042 0 .07.056.07.127 0 .07.063.168.14.225.078.056.141.14.141.182 0 .043.127.211.282.373.154.155.28.317.28.359 0 .077.915.984 1 .984.027 0 .19.127.344.281.162.155.337.282.387.282.056 0 .098.028.098.07 0 .035.042.07.091.07.05 0 .162.064.246.14.085.078.197.141.26.141.057 0 .106.029.106.07 0 .036.063.071.14.071.078 0 .141.028.141.07 0 .035.064.07.14.07.078 0 .142.029.142.071 0 .035.063.07.14.07.078 0 .14.028.14.07 0 .036.1.07.212.07.12 0 .21.03.21.071 0 .035.078.07.17.07.098 0 .196.029.217.07.022.036.134.071.254.071.112 0 .203.028.203.07 0 .036.141.07.31.07.176 0 .337.029.358.071.022.035.324.07.675.07.373 0 .626.029.626.07 0 .05 8.88.071 26.508.071 17.627 0 26.508-.021 26.508-.07 0-.042.253-.07.626-.07.351 0 .654-.036.675-.07.02-.036.182-.071.358-.071.169 0 .31-.035.31-.07 0-.043.091-.07.203-.07.12 0 .232-.036.254-.071.02-.042.12-.07.218-.07.091 0 .168-.036.168-.07 0-.043.099-.071.211-.071.12 0 .211-.035.211-.07 0-.043.063-.07.14-.07.078 0 .141-.036.141-.071 0-.042.064-.07.141-.07.077 0 .14-.035.14-.07 0-.043.064-.07.141-.07.078 0 .14-.036.14-.071 0-.042.05-.07.106-.07.064 0 .176-.064.26-.141.085-.078.197-.14.247-.14.049 0 .091-.036.091-.071 0-.042.042-.07.099-.07.049 0 .224-.127.386-.282.155-.154.317-.28.352-.28.091 0 .991-.9.991-.992 0-.035.127-.197.281-.352.155-.162.282-.33.282-.373 0-.042.063-.126.14-.182.078-.057.14-.155.14-.225s.036-.127.071-.127c.042 0 .07-.063.07-.14 0-.078.022-.141.057-.141.056 0 .225-.345.225-.471 0-.05.035-.092.07-.092.042 0 .07-.063.07-.14 0-.078.036-.14.07-.14.043 0 .071-.064.071-.142 0-.077.035-.14.07-.14.043 0 .07-.099.07-.211 0-.12.036-.211.071-.211.042 0 .07-.091.07-.204 0-.12.028-.232.07-.253.036-.021.07-.169.07-.316 0-.148.036-.296.071-.317.042-.021.07-.246.07-.492s.036-.471.07-.492c.043-.028.071-.492.071-1.168 0-.696.028-1.117.07-1.117.043 0 .07-.401.07-1.055 0-.654.029-1.055.071-1.055.042 0 .07-.4.07-1.054s.029-1.055.07-1.055c.043 0 .071-.394.071-1.048 0-.682.028-1.062.077-1.076.113-.035.127-6.257.007-6.293-.042-.02-.084-.126-.084-.239 0-.112-.028-.204-.07-.204-.035 0-.07-.063-.07-.14 0-.169-.345-.816-.577-1.083-.07-.077-.127-.162-.127-.197 0-.098-1.188-1.251-1.286-1.251-.05 0-.134-.064-.19-.141-.056-.077-.155-.14-.225-.14s-.127-.036-.127-.071c0-.042-.063-.07-.14-.07-.078 0-.141-.035-.141-.07 0-.043-.063-.07-.14-.07-.078 0-.141-.036-.141-.071 0-.042-.064-.07-.14-.07-.078 0-.142-.036-.142-.07 0-.043-.091-.071-.203-.071-.12 0-.232-.028-.254-.07-.02-.043-.182-.07-.358-.07-.169 0-.31-.036-.31-.071 0-.042-.421-.07-1.125-.07-.703 0-1.125.028-1.125.07 0 .035-.126.07-.28.07-.155 0-.282.028-.282.07 0 .036-.091.07-.211.07-.112 0-.21.029-.21.071 0 .035-.092.07-.212.07-.112 0-.21.029-.21.07 0 .036-.064.071-.141.071-.078 0-.141.028-.141.07 0 .035-.056.07-.127.07-.07 0-.168.064-.225.141-.056.078-.14.14-.19.14-.049 0-.19.092-.316.212-.12.112-.246.21-.281.21-.078 0-.69.612-.69.69 0 .035-.09.162-.21.281-.113.127-.211.26-.211.295 0 .043-.063.141-.14.225-.078.085-.141.197-.141.246 0 .05-.028.092-.07.092-.036 0-.07.063-.07.134 0 .077-.03.161-.071.182-.035.021-.07.12-.07.218 0 .092-.029.17-.07.17-.036 0-.071.09-.071.21 0 .113-.028.21-.07.21-.036 0-.07.127-.07.275 0 .155-.036.303-.071.324-.042.02-.07.182-.07.351 0 .169-.029.33-.07.352-.036.02-.071.183-.071.351 0 .169-.035.33-.07.352-.035.02-.07.183-.07.351 0 .17-.029.33-.071.352-.035.021-.07.183-.07.352 0 .168-.028.33-.07.351-.036.021-.07.183-.07.352 0 .168-.03.33-.071.351-.035.021-.07.183-.07.352 0 .168-.036.33-.07.351-.036.021-.071.183-.071.352 0 .169-.028.33-.07.352-.036.02-.07.182-.07.351 0 .169-.029.33-.071.352-.035.02-.07.197-.07.386 0 .19-.029.366-.07.387-.036.021-.071.183-.071.352 0 .168-.035.33-.07.351-.035.021-.07.183-.07.352 0 .169-.029.33-.071.351-.035.021-.07.183-.07.352 0 .169-.035.33-.07.351-.043.021-.07.134-.07.246 0 .113-.03.226-.071.247-.035.02-.07.12-.07.218 0 .091-.029.168-.07.168-.036 0-.071.064-.071.14 0 .078-.028.142-.07.142-.036 0-.07.063-.07.14 0 .078-.029.14-.071.14-.035 0-.07.043-.07.1 0 .126-.957 1.103-1.21 1.23-.112.056-.197.126-.197.161 0 .029-.063.057-.14.057-.078 0-.14.028-.14.07 0 .035-.064.07-.142.07-.077 0-.14.028-.14.07 0 .036-.092.07-.211.07-.113 0-.211.03-.211.071 0 .035-.127.07-.281.07-.155 0-.282.029-.282.07 0 .05-6.307.071-18.773.071s-18.773-.02-18.773-.07c0-.042-.127-.07-.282-.07-.154 0-.28-.036-.28-.07 0-.043-.092-.071-.212-.071-.112 0-.21-.035-.21-.07 0-.043-.064-.07-.141-.07-.078 0-.141-.036-.141-.071 0-.042-.063-.07-.14-.07-.078 0-.141-.028-.141-.057 0-.035-.085-.105-.19-.161-.253-.127-1.013-.886-1.14-1.14-.056-.105-.126-.19-.16-.19-.03 0-.057-.063-.057-.14 0-.077-.028-.14-.07-.14-.036 0-.07-.064-.07-.141 0-.077-.029-.14-.071-.14-.035 0-.07-.078-.07-.17 0-.098-.029-.196-.07-.217-.036-.021-.071-.148-.071-.282 0-.133-.028-.26-.07-.28-.036-.022-.07-.184-.07-.352 0-.17-.029-.33-.071-.352-.035-.021-.07-.183-.07-.352 0-.168-.028-.33-.07-.351-.036-.021-.07-.183-.07-.352 0-.169-.03-.33-.071-.351-.035-.021-.07-.183-.07-.352 0-.169-.029-.33-.07-.351-.036-.021-.071-.183-.071-.352 0-.169-.028-.33-.07-.352-.036-.02-.07-.182-.07-.351 0-.169-.029-.33-.071-.352-.035-.02-.07-.183-.07-.351 0-.169-.029-.33-.07-.352-.036-.02-.071-.183-.071-.351 0-.17-.028-.33-.07-.352-.036-.021-.07-.183-.07-.352 0-.168-.029-.33-.071-.351-.035-.021-.07-.183-.07-.352 0-.168-.028-.33-.07-.351-.036-.021-.07-.183-.07-.352 0-.168-.03-.33-.071-.351-.035-.021-.07-.183-.07-.352 0-.169-.029-.33-.07-.351-.036-.021-.071-.17-.071-.324 0-.148-.028-.274-.07-.274-.036 0-.07-.098-.07-.211 0-.12-.029-.21-.071-.21-.035 0-.07-.078-.07-.17 0-.098-.029-.197-.07-.218-.036-.02-.071-.105-.071-.183 0-.07-.028-.133-.07-.133-.036 0-.07-.042-.07-.091 0-.05-.064-.162-.141-.247-.078-.084-.14-.182-.14-.232 0-.042-.092-.168-.212-.274-.112-.105-.21-.225-.21-.26 0-.091-.606-.724-.69-.724-.035 0-.162-.099-.281-.211-.127-.12-.267-.211-.317-.211-.049 0-.133-.063-.19-.14-.056-.078-.154-.141-.224-.141s-.127-.035-.127-.07c0-.043-.063-.07-.14-.07-.078 0-.141-.036-.141-.071 0-.042-.092-.07-.211-.07-.113 0-.211-.036-.211-.07 0-.043-.091-.071-.211-.071-.112 0-.21-.035-.21-.07 0-.043-.127-.07-.282-.07-.155 0-.281-.036-.281-.071 0-.042-.422-.07-1.118-.07-.675 0-1.14.028-1.168.07zM8.79 54.914c0 .155-.03.281-.071.281-.035 0-.07.127-.07.282 0 .154-.029.28-.07.28-.036 0-.071.127-.071.282 0 .155-.028.281-.07.281-.036 0-.07.127-.07.282 0 .154-.029.28-.071.28-.035 0-.07.127-.07.275 0 .155-.029.302-.07.324-.043.02-.071.351-.071.738 0 .386.028.717.07.738.042.021.07.134.07.253 0 .113.036.204.07.204.043 0 .071.091.071.211 0 .112.035.21.07.21.043 0 .07.043.07.1 0 .049.092.19.205.302.112.12.26.302.323.4.07.099.155.183.19.183.042 0 .162.092.267.211.106.113.246.211.31.211.063 0 .112.028.112.07 0 .036.063.07.134.07.077 0 .161.029.182.071.022.035.134.07.247.07.112 0 .225.029.246.07.028.043.4.071.886.071.513 0 .836-.028.836-.07 0-.042.099-.07.211-.07.12 0 .211-.036.211-.07 0-.043.042-.071.092-.071.126 0 .47-.169.47-.232 0-.028.05-.05.106-.05.134 0 .809-.667.942-.935.057-.105.127-.19.162-.19.028 0 .056-.063.056-.14 0-.077.035-.14.07-.14.043 0 .07-.1.07-.212 0-.12.036-.21.071-.21.042 0 .07-.127.07-.282 0-.154.036-.281.07-.281.043 0 .071-.127.071-.281 0-.155.035-.282.07-.282.043 0 .07-.126.07-.28 0-.156.036-.282.071-.282.042 0 .07-.127.07-.281 0-.155.036-.282.07-.282.043 0 .071-.126.071-.28 0-.156.035-.282.07-.282.043 0 .07-.127.07-.281 0-.155.036-.282.071-.282.042 0 .07-.126.07-.28 0-.156.035-.282.07-.282.043 0 .07-.162.07-.352v-.351H8.79v.281zM56.04 54.984c0 .19.034.352.07.352.042 0 .07.127.07.281 0 .155.035.281.07.281.042 0 .07.127.07.282 0 .154.035.28.07.28.043 0 .07.127.07.282 0 .155.036.281.071.281.042 0 .07.127.07.282 0 .154.036.28.07.28.043 0 .071.127.071.282 0 .155.035.281.07.281.043 0 .07.127.07.282 0 .154.036.28.071.28.042 0 .07.127.07.282 0 .155.036.281.07.281.043 0 .071.092.071.211 0 .113.035.211.07.211.043 0 .07.064.07.14 0 .078.029.142.057.142.035 0 .105.084.162.19.133.267.808.935.942.935.056 0 .105.02.105.049 0 .063.345.232.471.232.05 0 .092.028.092.07 0 .035.098.07.21.07.12 0 .212.029.212.07 0 .043.323.071.836.071.486 0 .858-.028.886-.07.021-.042.134-.07.246-.07.113 0 .225-.036.246-.07.022-.043.106-.071.183-.071.07 0 .134-.035.134-.07 0-.043.05-.07.112-.07.141 0 1.294-1.161 1.294-1.302 0-.056.035-.105.07-.105.043 0 .07-.099.07-.211 0-.12.036-.21.071-.21.042 0 .07-.092.07-.205 0-.12.036-.232.07-.253.043-.021.071-.352.071-.738 0-.387-.028-.717-.07-.739-.035-.02-.07-.168-.07-.323 0-.148-.029-.274-.07-.274-.036 0-.071-.127-.071-.281 0-.155-.028-.282-.07-.282-.036 0-.07-.126-.07-.28 0-.156-.029-.282-.071-.282-.035 0-.07-.127-.07-.281 0-.155-.029-.282-.07-.282-.036 0-.071-.126-.071-.28v-.282h-7.172v.351z"/></svg><svg viewBox="0 0 128 128" id="favicon" xmlns="http://www.w3.org/2000/svg"><path d="M0 0h128v128H0z"/><path fill-rule="evenodd" clip-rule="evenodd" d="M22 34.215l.992 15.082c3.477-2.878 8.794-4.317 15.95-4.317 6.634 0 11.794 1.236 15.48 3.707 3.685 2.428 5.527 5.832 5.527 10.211v.65c0 2.732-.997 5.312-2.991 7.74-1.995 2.385-5.182 4.77-9.56 7.154l-7.025 3.837H60.47V88.49H25.57l2.087 31.714L105 106.968l-3.091-46.982c-4.376 4.635-7.873 9.128-10.492 13.48-3.035 5.117-4.552 9.583-4.552 13.398v1.626H71.71v-1.626c0-3.989 1.452-8.498 4.357-13.528 2.949-5.072 7.176-10.34 12.683-15.803H60.85V45.825h40.127L98.488 8 22 34.215zm2.68 40.742l-.808-12.287h6.746v-1.3c0-1.865.715-3.274 2.146-4.228 1.474-.997 3.598-1.496 6.373-1.496 2.472 0 4.358.347 5.659 1.041 1.3.694 1.95 1.713 1.95 3.057v.52c0 .954-.433 1.843-1.3 2.666-.824.824-2.45 1.908-4.878 3.252l-15.887 8.775z"/></svg><svg viewBox="0 0 72 72" id="infrastructure" xmlns="http://www.w3.org/2000/svg"><path d="M31 11h6v52h-6zM40 20h18.5l5.5 5-5.5 5H40V20zM28 42H12.5L7 37l5.5-5H28v10z"/><circle cx="34" cy="8" r="4"/><ellipse cx="34.5" cy="65" rx="14.5" ry="3"/></svg><svg viewBox="0 0 74 74" id="parking" xmlns="http://www.w3.org/2000/svg"><g clip-path="url(#eclip0_1_119)"><path d="M20.748 60V13.1h19.095c4.377 0 7.973.648 10.787 1.943 2.814 1.25 4.89 3.082 6.23 5.494 1.385 2.367 2.078 5.226 2.078 8.576 0 3.305-.693 6.164-2.077 8.576-1.34 2.412-3.417 4.266-6.231 5.561-2.814 1.25-6.41 1.876-10.787 1.876h-7.035V60h-12.06zm12.06-24.79h5.695c3.082 0 5.248-.514 6.499-1.541 1.25-1.027 1.876-2.546 1.876-4.556 0-2.01-.626-3.529-1.876-4.556-1.251-1.027-3.417-1.541-6.5-1.541h-5.694V35.21z"/><rect x=".5" y=".5" width="73" height="73" rx="6.5"/></g><defs><clipPath id="eclip0_1_119"><path d="M0 0h74v74H0z"/></clipPath></defs></svg><svg viewBox="0 0 27 33" id="steps-arrow" xmlns="http://www.w3.org/2000/svg"><path d="M2 2l21 14.5L2 31"/></svg><svg viewBox="0 0 215 24" id="vector-invest" xmlns="http://www.w3.org/2000/svg"><path d="M173.181 19.253C142.474 21.758 45.807 22.2 20.027 17.57-30.938 8.417 32.1 2.412 80.37 1.39 137.837.174 209.58 2.694 212.968 9.384c2.723 5.375-20.905 13.797-82.213 13.046"/></svg><svg viewBox="0 0 213 28" id="vector-invest-two" xmlns="http://www.w3.org/2000/svg"><path d="M211.171 14.709c5.59-6.68-17.171-18.24-139.76-11.732-156.533 8.31-20.5 34.95 102.49 19.064"/></svg><svg viewBox="0 0 110 15" id="vector-title" xmlns="http://www.w3.org/2000/svg"><path d="M1.51 6.712c21.758-2.64 73.71-6.759 107.458-2.12M1.387 11.724C23.145 9.084 72.752 6.36 106.5 11"/></svg></svg>