<?xml version="1.0" encoding="utf-8"?><svg viewBox="0 0 128 128" xmlns="http://www.w3.org/2000/svg" xmlns:xlink="http://www.w3.org/1999/xlink"><style>:root>svg{display:none}:root>svg:target{display:block}</style><svg viewBox="0 0 128 128" id="favicon" xmlns="http://www.w3.org/2000/svg"><path d="M16 55.556c0-17.054 0-25.581 2.013-28.45 2.014-2.869 10.031-5.613 26.067-11.102l3.055-1.046c8.358-2.86 12.538-4.291 16.865-4.291 4.327 0 8.507 1.43 16.865 4.292l3.056 1.045c16.035 5.49 24.052 8.233 26.066 11.102C112 29.975 112 38.502 112 55.556v8.398c0 30.07-22.608 44.662-36.792 50.858-3.848 1.681-5.772 2.521-11.208 2.521s-7.36-.84-11.208-2.521C38.608 108.616 16 94.024 16 63.954v-8.398z"/></svg></svg>