<?xml version="1.0" encoding="utf-8"?><svg viewBox="0 0 215 128" xmlns="http://www.w3.org/2000/svg" xmlns:xlink="http://www.w3.org/1999/xlink"><style>:root>svg{display:none}:root>svg:target{display:block}</style><svg viewBox="0 0 128 128" id="favicon" xmlns="http://www.w3.org/2000/svg"><path d="M16 55.556c0-17.054 0-25.581 2.013-28.45 2.014-2.869 10.031-5.613 26.067-11.102l3.055-1.046c8.358-2.86 12.538-4.291 16.865-4.291 4.327 0 8.507 1.43 16.865 4.292l3.056 1.045c16.035 5.49 24.052 8.233 26.066 11.102C112 29.975 112 38.502 112 55.556v8.398c0 30.07-22.608 44.662-36.792 50.858-3.848 1.681-5.772 2.521-11.208 2.521s-7.36-.84-11.208-2.521C38.608 108.616 16 94.024 16 63.954v-8.398z"/></svg><svg viewBox="0 0 27 33" id="steps-arrow" xmlns="http://www.w3.org/2000/svg"><path d="M2 2l21 14.5L2 31"/></svg><svg viewBox="0 0 215 24" id="vector-invest" xmlns="http://www.w3.org/2000/svg"><path d="M173.181 19.253C142.474 21.758 45.807 22.2 20.027 17.57-30.938 8.417 32.1 2.412 80.37 1.39 137.837.174 209.58 2.694 212.968 9.384c2.723 5.375-20.905 13.797-82.213 13.046"/></svg><svg viewBox="0 0 213 28" id="vector-invest-two" xmlns="http://www.w3.org/2000/svg"><path d="M211.171 14.709c5.59-6.68-17.171-18.24-139.76-11.732-156.533 8.31-20.5 34.95 102.49 19.064"/></svg><svg viewBox="0 0 110 15" id="vector-title" xmlns="http://www.w3.org/2000/svg"><path d="M1.51 6.712c21.758-2.64 73.71-6.759 107.458-2.12M1.387 11.724C23.145 9.084 72.752 6.36 106.5 11"/></svg></svg>