<svg width="72" height="72" viewBox="0 0 72 72" fill="none" xmlns="http://www.w3.org/2000/svg">
<path d="M14.1328 10.4062C14.1328 10.4414 13.9641 10.4766 13.7531 10.4766C13.5422 10.4766 13.3453 10.5047 13.3242 10.5469C13.3031 10.582 13.1766 10.6172 13.043 10.6172C12.9094 10.6172 12.7828 10.6453 12.7617 10.6875C12.7406 10.7227 12.6422 10.7578 12.5508 10.7578C12.4594 10.7578 12.3609 10.7859 12.3399 10.8281C12.3188 10.8633 12.2344 10.8984 12.157 10.8984C12.0867 10.8984 12.0234 10.9266 12.0234 10.9688C12.0234 11.0039 11.932 11.0391 11.8125 11.0391C11.7 11.0391 11.6016 11.0672 11.6016 11.1094C11.6016 11.1445 11.5383 11.1797 11.4609 11.1797C11.3836 11.1797 11.3203 11.2078 11.3203 11.25C11.3203 11.2852 11.257 11.3203 11.1797 11.3203C11.1024 11.3203 11.0391 11.3484 11.0391 11.3906C11.0391 11.4258 10.9899 11.4609 10.9336 11.4609C10.8703 11.4609 10.7578 11.5242 10.6734 11.6016C10.5891 11.6789 10.4766 11.7422 10.4274 11.7422C10.3781 11.7422 10.3359 11.7703 10.3359 11.8125C10.3359 11.8477 10.2938 11.8828 10.2375 11.8828C10.1883 11.8828 10.0477 11.9742 9.92814 12.0938C9.80157 12.2063 9.67501 12.3047 9.63986 12.3047C9.55548 12.3047 8.08595 13.7531 8.08595 13.8375C8.08595 13.8727 7.98751 13.9992 7.87501 14.1188C7.75548 14.2453 7.66407 14.3859 7.66407 14.4352C7.66407 14.4844 7.60079 14.5688 7.52345 14.625C7.44611 14.6813 7.38282 14.7797 7.38282 14.85C7.38282 14.9203 7.3547 14.9766 7.31251 14.9766C7.27736 14.9766 7.2422 15.0398 7.2422 15.1172C7.2422 15.1945 7.22111 15.2578 7.19298 15.2578C7.1297 15.2578 6.96095 15.6023 6.96095 15.7289C6.96095 15.7781 6.93282 15.8203 6.89064 15.8203C6.85548 15.8203 6.82032 15.8836 6.82032 15.9609C6.82032 16.0383 6.7922 16.1016 6.75001 16.1016C6.71486 16.1016 6.6797 16.1648 6.6797 16.2352C6.6797 16.3125 6.65157 16.3969 6.60939 16.418C6.57423 16.4391 6.53907 16.5375 6.53907 16.6289C6.53907 16.7203 6.51095 16.8188 6.46876 16.8398C6.43361 16.8609 6.39845 16.9945 6.39845 17.1281C6.39845 17.2617 6.37032 17.3672 6.32814 17.3672C6.29298 17.3672 6.25782 17.4938 6.25782 17.6484C6.25782 17.8031 6.2297 17.9297 6.18751 17.9297C6.14532 17.9297 6.1172 18.1477 6.1172 18.45C6.1172 18.7383 6.08907 18.9984 6.04689 19.0195C5.95548 19.0758 5.95548 20.5102 6.04689 20.5664C6.08907 20.5875 6.1172 20.8406 6.1172 21.1289C6.1172 21.4172 6.15236 21.6703 6.18751 21.6914C6.2297 21.7125 6.25782 21.8602 6.25782 22.0078C6.25782 22.1555 6.29298 22.3031 6.32814 22.3242C6.37032 22.3453 6.39845 22.493 6.39845 22.6477C6.39845 23.0203 6.52501 23.1328 6.91876 23.1328C7.09454 23.1328 7.2422 23.1609 7.2422 23.2031C7.2422 23.2383 7.38282 23.2734 7.55157 23.2734C7.72736 23.2734 7.88907 23.3016 7.91017 23.3438C7.93126 23.3789 8.04376 23.4141 8.16329 23.4141C8.27579 23.4141 8.3672 23.4422 8.3672 23.4844C8.3672 23.5195 8.46564 23.5547 8.57814 23.5547C8.69767 23.5547 8.78907 23.5828 8.78907 23.625C8.78907 23.6602 8.85236 23.6953 8.9297 23.6953C9.00704 23.6953 9.07032 23.7234 9.07032 23.7656C9.07032 23.8008 9.13361 23.8359 9.21095 23.8359C9.28829 23.8359 9.35157 23.8641 9.35157 23.9062C9.35157 23.9414 9.41486 23.9766 9.4922 23.9766C9.56954 23.9766 9.63282 24.0047 9.63282 24.0469C9.63282 24.082 9.69611 24.1172 9.77345 24.1172C9.85079 24.1172 9.91407 24.1453 9.91407 24.1875C9.91407 24.2227 9.97032 24.2578 10.0406 24.2578C10.1109 24.2578 10.2094 24.3211 10.2656 24.3984C10.3219 24.4758 10.4133 24.5391 10.4625 24.5391C10.5188 24.5391 10.6524 24.6305 10.7578 24.75C10.8633 24.8625 10.9899 24.9609 11.032 24.9609C11.1234 24.9609 12.1641 26.0016 12.1641 26.093C12.1641 26.1352 12.2625 26.2617 12.375 26.3672C12.4945 26.4727 12.5859 26.6063 12.5859 26.6625C12.5859 26.7117 12.6492 26.8031 12.7266 26.8594C12.8039 26.9156 12.8672 27.0141 12.8672 27.0844C12.8672 27.1547 12.9024 27.2109 12.9375 27.2109C12.9797 27.2109 13.0078 27.2742 13.0078 27.3516C13.0078 27.4289 13.043 27.4922 13.0781 27.4922C13.1203 27.4922 13.1484 27.5555 13.1484 27.6328C13.1484 27.7102 13.1836 27.7734 13.2188 27.7734C13.2609 27.7734 13.2891 27.8367 13.2891 27.9141C13.2891 27.9914 13.3242 28.0547 13.3594 28.0547C13.4016 28.0547 13.4297 28.118 13.4297 28.1883C13.4297 28.2656 13.4649 28.35 13.5 28.3711C13.5422 28.3922 13.5703 28.4906 13.5703 28.582C13.5703 28.6734 13.6055 28.7719 13.6406 28.793C13.6828 28.8141 13.7109 28.9477 13.7109 29.0813C13.7109 29.2148 13.7461 29.3203 13.7813 29.3203C13.8234 29.3203 13.8516 29.4469 13.8516 29.5945C13.8516 29.7492 13.8867 29.8969 13.9219 29.918C13.9641 29.9391 13.9922 30.1008 13.9922 30.2695C13.9922 30.4383 14.0274 30.6 14.0625 30.6211C14.1047 30.6422 14.1328 30.8039 14.1328 30.9727C14.1328 31.1414 14.168 31.3031 14.2031 31.3242C14.2453 31.3453 14.2734 31.5211 14.2734 31.7109C14.2734 31.9008 14.3086 32.0766 14.3438 32.0977C14.3859 32.1188 14.4141 32.2805 14.4141 32.4492C14.4141 32.618 14.4492 32.7797 14.4844 32.8008C14.5266 32.8219 14.5547 32.9836 14.5547 33.1523C14.5547 33.3211 14.5899 33.4828 14.625 33.5039C14.6672 33.525 14.6953 33.6867 14.6953 33.8555C14.6953 34.0242 14.7305 34.1859 14.7656 34.207C14.8078 34.2281 14.8359 34.3898 14.8359 34.5586C14.8359 34.7273 14.8711 34.8891 14.9063 34.9102C14.9484 34.9313 14.9766 35.093 14.9766 35.2617C14.9766 35.4305 15.0117 35.5922 15.0469 35.6133C15.0891 35.6344 15.1172 35.7961 15.1172 35.9648C15.1172 36.1336 15.1524 36.2953 15.1875 36.3164C15.2297 36.3375 15.2578 36.4992 15.2578 36.668C15.2578 36.8367 15.293 36.9984 15.3281 37.0195C15.3703 37.0406 15.3984 37.2023 15.3984 37.3711C15.3984 37.5398 15.4336 37.7016 15.4688 37.7227C15.5109 37.7438 15.5391 37.9055 15.5391 38.0742C15.5391 38.243 15.5742 38.4047 15.6094 38.4258C15.6516 38.4469 15.6797 38.5312 15.6797 38.6016C15.6797 39.1008 16.6359 40.0078 17.1563 40.0078C17.2758 40.0078 17.3672 40.0359 17.3672 40.0781C17.3672 40.1273 23.625 40.1484 36 40.1484C48.375 40.1484 54.6328 40.1273 54.6328 40.0781C54.6328 40.0359 54.7102 40.0078 54.8016 40.0078C55.3359 40.0078 56.3203 39.1008 56.3203 38.6016C56.3203 38.5312 56.3555 38.4469 56.3906 38.4258C56.4328 38.4047 56.4609 38.243 56.4609 38.0742C56.4609 37.9055 56.4891 37.7438 56.5313 37.7227C56.5734 37.7016 56.6016 37.5398 56.6016 37.3711C56.6016 37.2023 56.6367 37.0406 56.6719 37.0195C56.7141 36.9984 56.7422 36.8367 56.7422 36.668C56.7422 36.4992 56.7703 36.3375 56.8125 36.3164C56.8547 36.2953 56.8828 36.1336 56.8828 35.9648C56.8828 35.7961 56.918 35.6344 56.9531 35.6133C56.9953 35.5922 57.0234 35.4305 57.0234 35.2617C57.0234 35.093 57.0516 34.9313 57.0938 34.9102C57.1359 34.8891 57.1641 34.7273 57.1641 34.5586C57.1641 34.3898 57.1922 34.2281 57.2344 34.207C57.2766 34.1859 57.3047 34.0242 57.3047 33.8555C57.3047 33.6867 57.3399 33.525 57.375 33.5039C57.4172 33.4828 57.4453 33.3211 57.4453 33.1523C57.4453 32.9836 57.4734 32.8219 57.5156 32.8008C57.5578 32.7797 57.5859 32.618 57.5859 32.4492C57.5859 32.2805 57.6211 32.1188 57.6563 32.0977C57.6984 32.0766 57.7266 31.9148 57.7266 31.7461C57.7266 31.5773 57.7617 31.4156 57.7969 31.3945C57.8391 31.3734 57.8672 31.2117 57.8672 31.043C57.8672 30.8742 57.9024 30.7125 57.9375 30.6914C57.9797 30.6703 58.0078 30.5086 58.0078 30.3398C58.0078 30.1711 58.043 30.0094 58.0781 29.9883C58.1203 29.9672 58.1484 29.8055 58.1484 29.6297C58.1484 29.4609 58.1836 29.3203 58.2188 29.3203C58.2609 29.3203 58.2891 29.2148 58.2891 29.0813C58.2891 28.9477 58.3242 28.8141 58.3594 28.793C58.4016 28.7719 58.4297 28.6734 58.4297 28.582C58.4297 28.4906 58.4649 28.3922 58.5 28.3711C58.5422 28.35 58.5703 28.2656 58.5703 28.1883C58.5703 28.118 58.6055 28.0547 58.6406 28.0547C58.6828 28.0547 58.7109 27.9914 58.7109 27.9141C58.7109 27.8367 58.7461 27.7734 58.7813 27.7734C58.8234 27.7734 58.8516 27.7102 58.8516 27.6328C58.8516 27.5555 58.8867 27.4922 58.9219 27.4922C58.9641 27.4922 58.9922 27.4289 58.9922 27.3516C58.9922 27.2742 59.0274 27.2109 59.0625 27.2109C59.1047 27.2109 59.1328 27.1547 59.1328 27.0844C59.1328 27.0141 59.1961 26.9156 59.2734 26.8594C59.3508 26.8031 59.4141 26.7117 59.4141 26.6625C59.4141 26.6063 59.5125 26.4727 59.625 26.3672C59.7375 26.2617 59.8359 26.1352 59.8359 26.1C59.8359 26.0016 60.8625 24.9609 60.9609 24.9609C61.0102 24.9609 61.1367 24.8625 61.2422 24.75C61.3477 24.6305 61.4813 24.5391 61.5375 24.5391C61.5867 24.5391 61.6781 24.4758 61.7344 24.3984C61.7906 24.3211 61.8891 24.2578 61.9594 24.2578C62.0297 24.2578 62.0859 24.2227 62.0859 24.1875C62.0859 24.1453 62.1492 24.1172 62.2266 24.1172C62.3039 24.1172 62.3672 24.082 62.3672 24.0469C62.3672 24.0047 62.4305 23.9766 62.5078 23.9766C62.5852 23.9766 62.6484 23.9414 62.6484 23.9062C62.6484 23.8641 62.7117 23.8359 62.7891 23.8359C62.8664 23.8359 62.9297 23.8008 62.9297 23.7656C62.9297 23.7234 62.993 23.6953 63.0703 23.6953C63.1477 23.6953 63.2109 23.6602 63.2109 23.625C63.2109 23.5828 63.3094 23.5547 63.4219 23.5547C63.5414 23.5547 63.6328 23.5195 63.6328 23.4844C63.6328 23.4422 63.7242 23.4141 63.8367 23.4141C63.9563 23.4141 64.0688 23.3789 64.0899 23.3438C64.1109 23.3016 64.2727 23.2734 64.4484 23.2734C64.7438 23.2734 64.7578 23.2664 64.7578 23.0695C64.7578 22.95 64.793 22.8375 64.8281 22.8164C64.8703 22.7953 64.8984 22.5984 64.8984 22.3875C64.8984 22.1766 64.9336 22.0078 64.9688 22.0078C65.0109 22.0078 65.0391 21.818 65.0391 21.5859C65.0391 21.3539 65.0672 21.1641 65.1094 21.1641C65.1516 21.1641 65.1797 20.6719 65.1797 19.8281C65.1797 18.9844 65.1516 18.4922 65.1094 18.4922C65.0742 18.4922 65.0391 18.3234 65.0391 18.1125C65.0391 17.9016 65.0109 17.7047 64.9688 17.6836C64.9336 17.6625 64.8984 17.5359 64.8984 17.4023C64.8984 17.2688 64.8703 17.1422 64.8281 17.1211C64.793 17.1 64.7578 16.9875 64.7578 16.868C64.7578 16.7555 64.7297 16.6641 64.6875 16.6641C64.6524 16.6641 64.6172 16.5867 64.6172 16.4953C64.6172 16.3969 64.5891 16.2984 64.5469 16.2773C64.5117 16.2563 64.4766 16.1719 64.4766 16.0945C64.4766 16.0242 64.4484 15.9609 64.4063 15.9609C64.3711 15.9609 64.3359 15.8977 64.3359 15.8203C64.3359 15.743 64.3078 15.6797 64.2656 15.6797C64.2305 15.6797 64.1953 15.6164 64.1953 15.5391C64.1953 15.4617 64.1672 15.3984 64.125 15.3984C64.0899 15.3984 64.0547 15.3352 64.0547 15.2578C64.0547 15.1805 64.0266 15.1172 63.9844 15.1172C63.9492 15.1172 63.9141 15.0609 63.9141 14.9906C63.9141 14.9203 63.8508 14.8219 63.7734 14.7656C63.6961 14.7094 63.6328 14.618 63.6328 14.5547C63.6328 14.4914 63.5695 14.4 63.4922 14.3438C63.4149 14.2875 63.3516 14.2031 63.3516 14.1539C63.3516 13.9641 61.5516 12.1641 61.3617 12.1641C61.3125 12.1641 61.2281 12.1008 61.1719 12.0234C61.1156 11.9461 61.0242 11.8828 60.9609 11.8828C60.8977 11.8828 60.8063 11.8195 60.75 11.7422C60.6938 11.6648 60.5953 11.6016 60.525 11.6016C60.4547 11.6016 60.3984 11.5664 60.3984 11.5312C60.3984 11.4891 60.3352 11.4609 60.2578 11.4609C60.1805 11.4609 60.1172 11.4258 60.1172 11.3906C60.1172 11.3484 60.0539 11.3203 59.9766 11.3203C59.8992 11.3203 59.8359 11.2852 59.8359 11.25C59.8359 11.2078 59.7727 11.1797 59.6953 11.1797C59.618 11.1797 59.5547 11.1445 59.5547 11.1094C59.5547 11.0672 59.4914 11.0391 59.4141 11.0391C59.3367 11.0391 59.2734 11.0039 59.2734 10.9688C59.2734 10.9266 59.182 10.8984 59.0625 10.8984C58.95 10.8984 58.8516 10.8633 58.8516 10.8281C58.8516 10.7859 58.7602 10.7578 58.6406 10.7578C58.5281 10.7578 58.4297 10.7227 58.4297 10.6875C58.4297 10.6453 58.3031 10.6172 58.1484 10.6172C57.9938 10.6172 57.8672 10.582 57.8672 10.5469C57.8672 10.5047 57.6774 10.4766 57.4453 10.4766C57.2133 10.4766 57.0234 10.4484 57.0234 10.4062C57.0234 10.357 49.8305 10.3359 35.5781 10.3359C21.3258 10.3359 14.1328 10.357 14.1328 10.4062Z" fill="#EEEEEE"/>
<path d="M4.81641 25.1719C4.79532 25.207 4.6336 25.2422 4.45782 25.2422C4.28907 25.2422 4.14844 25.2703 4.14844 25.3125C4.14844 25.3477 4.05704 25.3828 3.93751 25.3828C3.82501 25.3828 3.72657 25.4109 3.72657 25.4531C3.72657 25.4883 3.66329 25.5234 3.58594 25.5234C3.5086 25.5234 3.44532 25.5516 3.44532 25.5938C3.44532 25.6289 3.38204 25.6641 3.30469 25.6641C3.22735 25.6641 3.16407 25.6922 3.16407 25.7344C3.16407 25.7695 3.10079 25.8047 3.02344 25.8047C2.9461 25.8047 2.88282 25.8328 2.88282 25.875C2.88282 25.9102 2.82657 25.9453 2.75626 25.9453C2.68594 25.9453 2.58751 26.0086 2.53126 26.0859C2.47501 26.1633 2.39063 26.2266 2.34141 26.2266C2.24297 26.2266 1.05469 27.3797 1.05469 27.4781C1.05469 27.5133 0.998443 27.5977 0.935162 27.675C0.696099 27.9422 0.351568 28.5891 0.351568 28.7578C0.351568 28.8352 0.323443 28.8984 0.281255 28.8984C0.246099 28.8984 0.210943 28.9898 0.210943 29.1023C0.210943 29.2148 0.168755 29.3203 0.126568 29.3414C0.00703667 29.3766 0.0210992 35.5992 0.133599 35.6344C0.182818 35.6484 0.210943 36.0281 0.210943 36.7102C0.210943 37.3641 0.239068 37.7578 0.281255 37.7578C0.323443 37.7578 0.351568 38.1586 0.351568 38.8125C0.351568 39.4664 0.379693 39.8672 0.42188 39.8672C0.464068 39.8672 0.492193 40.268 0.492193 40.9219C0.492193 41.5758 0.520318 41.9766 0.562505 41.9766C0.604693 41.9766 0.632818 42.3984 0.632818 43.0945C0.632818 43.7695 0.660943 44.2336 0.70313 44.2617C0.745318 44.2828 0.773443 44.5078 0.773443 44.7539C0.773443 45 0.808599 45.225 0.843755 45.2461C0.885943 45.2672 0.914068 45.4289 0.914068 45.6047C0.914068 45.7734 0.949224 45.9141 0.98438 45.9141C1.02657 45.9141 1.05469 46.0055 1.05469 46.125C1.05469 46.2375 1.08985 46.3359 1.12501 46.3359C1.16719 46.3359 1.19532 46.4273 1.19532 46.5469C1.19532 46.6594 1.23047 46.7578 1.26563 46.7578C1.30782 46.7578 1.33594 46.8211 1.33594 46.8984C1.33594 46.9758 1.3711 47.0391 1.40626 47.0391C1.44844 47.0391 1.47657 47.1023 1.47657 47.1797C1.47657 47.257 1.51172 47.3203 1.54688 47.3203C1.58907 47.3203 1.61719 47.3625 1.61719 47.4117C1.61719 47.5383 1.78594 47.8828 1.84922 47.8828C1.87735 47.8828 1.89844 47.9461 1.89844 48.0234C1.89844 48.1008 1.9336 48.1641 1.96876 48.1641C2.01094 48.1641 2.03907 48.2203 2.03907 48.2906C2.03907 48.3609 2.10235 48.4594 2.17969 48.5156C2.25704 48.5719 2.32032 48.6562 2.32032 48.6984C2.32032 48.7406 2.44688 48.9094 2.60157 49.0711C2.75626 49.2258 2.88282 49.3875 2.88282 49.4297C2.88282 49.507 3.79688 50.4141 3.88126 50.4141C3.90938 50.4141 4.0711 50.5406 4.22579 50.6953C4.38751 50.85 4.56329 50.9766 4.61251 50.9766C4.66876 50.9766 4.71094 51.0047 4.71094 51.0469C4.71094 51.082 4.75313 51.1172 4.80235 51.1172C4.85157 51.1172 4.96407 51.1805 5.04844 51.2578C5.13282 51.3352 5.24532 51.3984 5.3086 51.3984C5.36485 51.3984 5.41407 51.4266 5.41407 51.4688C5.41407 51.5039 5.47735 51.5391 5.55469 51.5391C5.63204 51.5391 5.69532 51.5672 5.69532 51.6094C5.69532 51.6445 5.7586 51.6797 5.83594 51.6797C5.91329 51.6797 5.97657 51.7078 5.97657 51.75C5.97657 51.7852 6.03985 51.8203 6.11719 51.8203C6.19454 51.8203 6.25782 51.8484 6.25782 51.8906C6.25782 51.9258 6.35626 51.9609 6.46876 51.9609C6.58829 51.9609 6.67969 51.9891 6.67969 52.0312C6.67969 52.0664 6.75704 52.1016 6.84844 52.1016C6.94688 52.1016 7.04532 52.1297 7.06641 52.1719C7.08751 52.207 7.20001 52.2422 7.31954 52.2422C7.43204 52.2422 7.52344 52.2703 7.52344 52.3125C7.52344 52.3477 7.66407 52.3828 7.83282 52.3828C8.0086 52.3828 8.17032 52.4109 8.19141 52.4531C8.21251 52.4883 8.51485 52.5234 8.86641 52.5234C9.23907 52.5234 9.49219 52.5516 9.49219 52.5938C9.49219 52.643 18.3727 52.6641 36 52.6641C53.6273 52.6641 62.5078 52.643 62.5078 52.5938C62.5078 52.5516 62.7609 52.5234 63.1336 52.5234C63.4852 52.5234 63.7875 52.4883 63.8086 52.4531C63.8297 52.418 63.9914 52.3828 64.1672 52.3828C64.3359 52.3828 64.4766 52.3477 64.4766 52.3125C64.4766 52.2703 64.568 52.2422 64.6805 52.2422C64.8 52.2422 64.9125 52.207 64.9336 52.1719C64.9547 52.1297 65.0531 52.1016 65.1516 52.1016C65.243 52.1016 65.3203 52.0664 65.3203 52.0312C65.3203 51.9891 65.4188 51.9609 65.5312 51.9609C65.6508 51.9609 65.7422 51.9258 65.7422 51.8906C65.7422 51.8484 65.8055 51.8203 65.8828 51.8203C65.9602 51.8203 66.0234 51.7852 66.0234 51.75C66.0234 51.7078 66.0867 51.6797 66.1641 51.6797C66.2414 51.6797 66.3047 51.6445 66.3047 51.6094C66.3047 51.5672 66.368 51.5391 66.4453 51.5391C66.5227 51.5391 66.5859 51.5039 66.5859 51.4688C66.5859 51.4266 66.6352 51.3984 66.6914 51.3984C66.7547 51.3984 66.8672 51.3352 66.9516 51.2578C67.0359 51.1805 67.1484 51.1172 67.1977 51.1172C67.2469 51.1172 67.2891 51.082 67.2891 51.0469C67.2891 51.0047 67.3313 50.9766 67.3875 50.9766C67.4367 50.9766 67.6125 50.85 67.7742 50.6953C67.9289 50.5406 68.0906 50.4141 68.1258 50.4141C68.2172 50.4141 69.1172 49.5141 69.1172 49.4227C69.1172 49.3875 69.2438 49.2258 69.3984 49.0711C69.5531 48.9094 69.6797 48.7406 69.6797 48.6984C69.6797 48.6562 69.743 48.5719 69.8203 48.5156C69.8977 48.4594 69.9609 48.3609 69.9609 48.2906C69.9609 48.2203 69.9961 48.1641 70.0312 48.1641C70.0734 48.1641 70.1016 48.1008 70.1016 48.0234C70.1016 47.9461 70.1227 47.8828 70.1578 47.8828C70.2141 47.8828 70.3828 47.5383 70.3828 47.4117C70.3828 47.3625 70.418 47.3203 70.4531 47.3203C70.4953 47.3203 70.5234 47.257 70.5234 47.1797C70.5234 47.1023 70.5586 47.0391 70.5938 47.0391C70.6359 47.0391 70.6641 46.9758 70.6641 46.8984C70.6641 46.8211 70.6992 46.7578 70.7344 46.7578C70.7766 46.7578 70.8047 46.6594 70.8047 46.5469C70.8047 46.4273 70.8398 46.3359 70.875 46.3359C70.9172 46.3359 70.9453 46.2445 70.9453 46.132C70.9453 46.0125 70.9734 45.9 71.0156 45.8789C71.0508 45.8578 71.0859 45.7102 71.0859 45.5625C71.0859 45.4148 71.1211 45.2672 71.1562 45.2461C71.1984 45.225 71.2266 45 71.2266 44.7539C71.2266 44.5078 71.2617 44.2828 71.2969 44.2617C71.3391 44.2336 71.3672 43.7695 71.3672 43.0945C71.3672 42.3984 71.3953 41.9766 71.4375 41.9766C71.4797 41.9766 71.5078 41.5758 71.5078 40.9219C71.5078 40.268 71.5359 39.8672 71.5781 39.8672C71.6203 39.8672 71.6484 39.4664 71.6484 38.8125C71.6484 38.1586 71.6766 37.7578 71.7188 37.7578C71.7609 37.7578 71.7891 37.3641 71.7891 36.7102C71.7891 36.0281 71.8172 35.6484 71.8664 35.6344C71.9789 35.5992 71.993 29.3766 71.8734 29.3414C71.8313 29.3203 71.7891 29.2148 71.7891 29.1023C71.7891 28.9898 71.7609 28.8984 71.7188 28.8984C71.6836 28.8984 71.6484 28.8352 71.6484 28.7578C71.6484 28.5891 71.3039 27.9422 71.0719 27.675C71.0016 27.5977 70.9453 27.5133 70.9453 27.4781C70.9453 27.3797 69.757 26.2266 69.6586 26.2266C69.6094 26.2266 69.525 26.1633 69.4688 26.0859C69.4125 26.0086 69.3141 25.9453 69.2438 25.9453C69.1734 25.9453 69.1172 25.9102 69.1172 25.875C69.1172 25.8328 69.0539 25.8047 68.9766 25.8047C68.8992 25.8047 68.8359 25.7695 68.8359 25.7344C68.8359 25.6922 68.7727 25.6641 68.6953 25.6641C68.618 25.6641 68.5547 25.6289 68.5547 25.5938C68.5547 25.5516 68.4914 25.5234 68.4141 25.5234C68.3367 25.5234 68.2734 25.4883 68.2734 25.4531C68.2734 25.4109 68.182 25.3828 68.0695 25.3828C67.95 25.3828 67.8375 25.3547 67.8164 25.3125C67.7953 25.2703 67.6336 25.2422 67.4578 25.2422C67.2891 25.2422 67.1484 25.207 67.1484 25.1719C67.1484 25.1297 66.7266 25.1016 66.0234 25.1016C65.3203 25.1016 64.8984 25.1297 64.8984 25.1719C64.8984 25.207 64.7719 25.2422 64.6172 25.2422C64.4625 25.2422 64.3359 25.2703 64.3359 25.3125C64.3359 25.3477 64.2445 25.3828 64.125 25.3828C64.0125 25.3828 63.9141 25.4109 63.9141 25.4531C63.9141 25.4883 63.8227 25.5234 63.7031 25.5234C63.5906 25.5234 63.4922 25.5516 63.4922 25.5938C63.4922 25.6289 63.4289 25.6641 63.3516 25.6641C63.2742 25.6641 63.2109 25.6922 63.2109 25.7344C63.2109 25.7695 63.1547 25.8047 63.0844 25.8047C63.0141 25.8047 62.9156 25.868 62.8594 25.9453C62.8031 26.0227 62.7188 26.0859 62.6695 26.0859C62.6203 26.0859 62.4797 26.1773 62.3531 26.2969C62.2336 26.4094 62.107 26.5078 62.0719 26.5078C61.9945 26.5078 61.3828 27.1195 61.3828 27.1969C61.3828 27.232 61.2914 27.3586 61.1719 27.4781C61.0594 27.6047 60.9609 27.7383 60.9609 27.7734C60.9609 27.8156 60.8977 27.9141 60.8203 27.9984C60.743 28.0828 60.6797 28.1953 60.6797 28.2445C60.6797 28.2938 60.6516 28.3359 60.6094 28.3359C60.5742 28.3359 60.5391 28.3992 60.5391 28.4695C60.5391 28.5469 60.5109 28.6313 60.4688 28.6523C60.4336 28.6734 60.3984 28.7719 60.3984 28.8703C60.3984 28.9617 60.3703 29.0391 60.3281 29.0391C60.293 29.0391 60.2578 29.1305 60.2578 29.25C60.2578 29.3625 60.2297 29.4609 60.1875 29.4609C60.1523 29.4609 60.1172 29.5875 60.1172 29.7352C60.1172 29.8898 60.082 30.0375 60.0469 30.0586C60.0047 30.0797 59.9766 30.2414 59.9766 30.4102C59.9766 30.5789 59.9484 30.7406 59.9063 30.7617C59.8711 30.7828 59.8359 30.9445 59.8359 31.1133C59.8359 31.282 59.8008 31.4438 59.7656 31.4648C59.7305 31.4859 59.6953 31.6477 59.6953 31.8164C59.6953 31.9852 59.6672 32.1469 59.625 32.168C59.5898 32.1891 59.5547 32.3508 59.5547 32.5195C59.5547 32.6883 59.5266 32.85 59.4844 32.8711C59.4492 32.8922 59.4141 33.0539 59.4141 33.2227C59.4141 33.3914 59.3859 33.5531 59.3438 33.5742C59.3086 33.5953 59.2734 33.757 59.2734 33.9258C59.2734 34.0945 59.2383 34.2563 59.2031 34.2773C59.168 34.2984 59.1328 34.4602 59.1328 34.6289C59.1328 34.7977 59.1047 34.9594 59.0625 34.9805C59.0273 35.0016 58.9922 35.1633 58.9922 35.332C58.9922 35.5008 58.9641 35.6625 58.9219 35.6836C58.8867 35.7047 58.8516 35.8805 58.8516 36.0703C58.8516 36.2602 58.8234 36.4359 58.7813 36.457C58.7461 36.4781 58.7109 36.6398 58.7109 36.8086C58.7109 36.9773 58.6758 37.1391 58.6406 37.1602C58.6055 37.1813 58.5703 37.343 58.5703 37.5117C58.5703 37.6805 58.5422 37.8422 58.5 37.8633C58.4648 37.8844 58.4297 38.0461 58.4297 38.2148C58.4297 38.3836 58.3945 38.5453 58.3594 38.5664C58.3172 38.5875 58.2891 38.7 58.2891 38.8125C58.2891 38.925 58.2609 39.0375 58.2188 39.0586C58.1836 39.0797 58.1484 39.1781 58.1484 39.2766C58.1484 39.368 58.1203 39.4453 58.0781 39.4453C58.043 39.4453 58.0078 39.5086 58.0078 39.5859C58.0078 39.6633 57.9797 39.7266 57.9375 39.7266C57.9023 39.7266 57.8672 39.7898 57.8672 39.8672C57.8672 39.9445 57.8391 40.0078 57.7969 40.0078C57.7617 40.0078 57.7266 40.05 57.7266 40.1063C57.7266 40.2328 56.7703 41.2102 56.5172 41.3367C56.4047 41.393 56.3203 41.4633 56.3203 41.4984C56.3203 41.5266 56.257 41.5547 56.1797 41.5547C56.1023 41.5547 56.0391 41.5828 56.0391 41.625C56.0391 41.6602 55.9758 41.6953 55.8984 41.6953C55.8211 41.6953 55.7578 41.7234 55.7578 41.7656C55.7578 41.8008 55.6664 41.8359 55.5469 41.8359C55.4344 41.8359 55.3359 41.8641 55.3359 41.9062C55.3359 41.9414 55.2094 41.9766 55.0547 41.9766C54.9 41.9766 54.7734 42.0047 54.7734 42.0469C54.7734 42.0961 48.4664 42.1172 36 42.1172C23.5336 42.1172 17.2266 42.0961 17.2266 42.0469C17.2266 42.0047 17.1 41.9766 16.9453 41.9766C16.7906 41.9766 16.6641 41.9414 16.6641 41.9062C16.6641 41.8641 16.5727 41.8359 16.4531 41.8359C16.3406 41.8359 16.2422 41.8008 16.2422 41.7656C16.2422 41.7234 16.1789 41.6953 16.1016 41.6953C16.0242 41.6953 15.9609 41.6602 15.9609 41.625C15.9609 41.5828 15.8977 41.5547 15.8203 41.5547C15.743 41.5547 15.6797 41.5266 15.6797 41.4984C15.6797 41.4633 15.5953 41.393 15.4898 41.3367C15.2367 41.2102 14.4773 40.4508 14.3508 40.1977C14.2945 40.0922 14.2242 40.0078 14.1891 40.0078C14.1609 40.0078 14.1328 39.9445 14.1328 39.8672C14.1328 39.7898 14.1047 39.7266 14.0625 39.7266C14.0273 39.7266 13.9922 39.6633 13.9922 39.5859C13.9922 39.5086 13.9641 39.4453 13.9219 39.4453C13.8867 39.4453 13.8516 39.368 13.8516 39.2766C13.8516 39.1781 13.8234 39.0797 13.7813 39.0586C13.7461 39.0375 13.7109 38.9109 13.7109 38.7773C13.7109 38.6438 13.6828 38.5172 13.6406 38.4961C13.6055 38.475 13.5703 38.3133 13.5703 38.1445C13.5703 37.9758 13.5422 37.8141 13.5 37.793C13.4648 37.7719 13.4297 37.6102 13.4297 37.4414C13.4297 37.2727 13.4016 37.1109 13.3594 37.0898C13.3242 37.0688 13.2891 36.907 13.2891 36.7383C13.2891 36.5695 13.2609 36.4078 13.2188 36.3867C13.1836 36.3656 13.1484 36.2039 13.1484 36.0352C13.1484 35.8664 13.1203 35.7047 13.0781 35.6836C13.043 35.6625 13.0078 35.5008 13.0078 35.332C13.0078 35.1633 12.9797 35.0016 12.9375 34.9805C12.9023 34.9594 12.8672 34.7977 12.8672 34.6289C12.8672 34.4602 12.8391 34.2984 12.7969 34.2773C12.7617 34.2563 12.7266 34.0945 12.7266 33.9258C12.7266 33.757 12.6984 33.5953 12.6563 33.5742C12.6211 33.5531 12.5859 33.3914 12.5859 33.2227C12.5859 33.0539 12.5578 32.8922 12.5156 32.8711C12.4805 32.85 12.4453 32.6883 12.4453 32.5195C12.4453 32.3508 12.4172 32.1891 12.375 32.168C12.3398 32.1469 12.3047 31.9852 12.3047 31.8164C12.3047 31.6477 12.2766 31.4859 12.2344 31.4648C12.1992 31.4438 12.1641 31.282 12.1641 31.1133C12.1641 30.9445 12.1359 30.7828 12.0938 30.7617C12.0586 30.7406 12.0234 30.5789 12.0234 30.4102C12.0234 30.2414 11.9953 30.0797 11.9531 30.0586C11.918 30.0375 11.8828 29.8898 11.8828 29.7352C11.8828 29.5875 11.8547 29.4609 11.8125 29.4609C11.7773 29.4609 11.7422 29.3625 11.7422 29.25C11.7422 29.1305 11.7141 29.0391 11.6719 29.0391C11.6367 29.0391 11.6016 28.9617 11.6016 28.8703C11.6016 28.7719 11.5734 28.6734 11.5313 28.6523C11.4961 28.6313 11.4609 28.5469 11.4609 28.4695C11.4609 28.3992 11.4328 28.3359 11.3906 28.3359C11.3555 28.3359 11.3203 28.2938 11.3203 28.2445C11.3203 28.1953 11.257 28.0828 11.1797 27.9984C11.1023 27.9141 11.0391 27.8156 11.0391 27.7664C11.0391 27.7242 10.9477 27.5977 10.8281 27.4922C10.7156 27.3867 10.6172 27.2672 10.6172 27.232C10.6172 27.1406 10.0125 26.5078 9.92813 26.5078C9.89297 26.5078 9.76641 26.4094 9.64688 26.2969C9.52032 26.1773 9.37969 26.0859 9.33047 26.0859C9.28125 26.0859 9.19688 26.0227 9.14063 25.9453C9.08438 25.868 8.98594 25.8047 8.91563 25.8047C8.84532 25.8047 8.78907 25.7695 8.78907 25.7344C8.78907 25.6922 8.72579 25.6641 8.64844 25.6641C8.5711 25.6641 8.50782 25.6289 8.50782 25.5938C8.50782 25.5516 8.41641 25.5234 8.29688 25.5234C8.18438 25.5234 8.08594 25.4883 8.08594 25.4531C8.08594 25.4109 7.99454 25.3828 7.87501 25.3828C7.76251 25.3828 7.66407 25.3477 7.66407 25.3125C7.66407 25.2703 7.53751 25.2422 7.38282 25.2422C7.22813 25.2422 7.10157 25.207 7.10157 25.1719C7.10157 25.1297 6.67969 25.1016 5.9836 25.1016C5.3086 25.1016 4.84454 25.1297 4.81641 25.1719Z" fill="#EEEEEE"/>
<path d="M8.78906 54.9141C8.78906 55.0688 8.76094 55.1953 8.71875 55.1953C8.68359 55.1953 8.64844 55.3219 8.64844 55.4766C8.64844 55.6313 8.62031 55.7578 8.57812 55.7578C8.54297 55.7578 8.50781 55.8844 8.50781 56.0391C8.50781 56.1938 8.47969 56.3203 8.4375 56.3203C8.40234 56.3203 8.36719 56.4469 8.36719 56.6016C8.36719 56.7562 8.33906 56.8828 8.29688 56.8828C8.26172 56.8828 8.22656 57.0094 8.22656 57.157C8.22656 57.3117 8.19844 57.4594 8.15625 57.4805C8.11406 57.5016 8.08594 57.832 8.08594 58.2188C8.08594 58.6055 8.11406 58.9359 8.15625 58.957C8.19844 58.9781 8.22656 59.0906 8.22656 59.2102C8.22656 59.3227 8.26172 59.4141 8.29688 59.4141C8.33906 59.4141 8.36719 59.5055 8.36719 59.625C8.36719 59.7375 8.40234 59.8359 8.4375 59.8359C8.47969 59.8359 8.50781 59.8781 8.50781 59.9344C8.50781 59.9836 8.59922 60.1242 8.71172 60.2367C8.82422 60.3563 8.97187 60.5391 9.03516 60.6375C9.10547 60.7359 9.18984 60.8203 9.225 60.8203C9.26719 60.8203 9.38672 60.9117 9.49219 61.0312C9.59766 61.1438 9.73828 61.2422 9.80156 61.2422C9.86484 61.2422 9.91406 61.2703 9.91406 61.3125C9.91406 61.3477 9.97734 61.3828 10.0477 61.3828C10.125 61.3828 10.2094 61.4109 10.2305 61.4531C10.2516 61.4883 10.3641 61.5234 10.4766 61.5234C10.5891 61.5234 10.7016 61.5516 10.7227 61.5938C10.7508 61.6359 11.1234 61.6641 11.6086 61.6641C12.1219 61.6641 12.4453 61.6359 12.4453 61.5938C12.4453 61.5516 12.5437 61.5234 12.6562 61.5234C12.7758 61.5234 12.8672 61.4883 12.8672 61.4531C12.8672 61.4109 12.9094 61.3828 12.9586 61.3828C13.0852 61.3828 13.4297 61.2141 13.4297 61.1508C13.4297 61.1227 13.4789 61.1016 13.5352 61.1016C13.6687 61.1016 14.3438 60.4336 14.4773 60.1664C14.5336 60.0609 14.6039 59.9766 14.6391 59.9766C14.6672 59.9766 14.6953 59.9133 14.6953 59.8359C14.6953 59.7586 14.7305 59.6953 14.7656 59.6953C14.8078 59.6953 14.8359 59.5969 14.8359 59.4844C14.8359 59.3648 14.8711 59.2734 14.9062 59.2734C14.9484 59.2734 14.9766 59.1469 14.9766 58.9922C14.9766 58.8375 15.0117 58.7109 15.0469 58.7109C15.0891 58.7109 15.1172 58.5844 15.1172 58.4297C15.1172 58.275 15.1523 58.1484 15.1875 58.1484C15.2297 58.1484 15.2578 58.0219 15.2578 57.8672C15.2578 57.7125 15.293 57.5859 15.3281 57.5859C15.3703 57.5859 15.3984 57.4594 15.3984 57.3047C15.3984 57.15 15.4336 57.0234 15.4688 57.0234C15.5109 57.0234 15.5391 56.8969 15.5391 56.7422C15.5391 56.5875 15.5742 56.4609 15.6094 56.4609C15.6516 56.4609 15.6797 56.3344 15.6797 56.1797C15.6797 56.025 15.7148 55.8984 15.75 55.8984C15.7922 55.8984 15.8203 55.7719 15.8203 55.6172C15.8203 55.4625 15.8555 55.3359 15.8906 55.3359C15.9328 55.3359 15.9609 55.1742 15.9609 54.9844V54.6328H12.375H8.78906V54.9141Z" fill="#EEEEEE"/>
<path d="M56.0391 54.9844C56.0391 55.1742 56.0742 55.3359 56.1094 55.3359C56.1516 55.3359 56.1797 55.4625 56.1797 55.6172C56.1797 55.7719 56.2148 55.8984 56.25 55.8984C56.2922 55.8984 56.3203 56.025 56.3203 56.1797C56.3203 56.3344 56.3555 56.4609 56.3906 56.4609C56.4328 56.4609 56.4609 56.5875 56.4609 56.7422C56.4609 56.8969 56.4961 57.0234 56.5312 57.0234C56.5734 57.0234 56.6016 57.15 56.6016 57.3047C56.6016 57.4594 56.6367 57.5859 56.6719 57.5859C56.7141 57.5859 56.7422 57.7125 56.7422 57.8672C56.7422 58.0219 56.7773 58.1484 56.8125 58.1484C56.8547 58.1484 56.8828 58.275 56.8828 58.4297C56.8828 58.5844 56.918 58.7109 56.9531 58.7109C56.9953 58.7109 57.0234 58.8375 57.0234 58.9922C57.0234 59.1469 57.0586 59.2734 57.0938 59.2734C57.1359 59.2734 57.1641 59.3648 57.1641 59.4844C57.1641 59.5969 57.1992 59.6953 57.2344 59.6953C57.2766 59.6953 57.3047 59.7586 57.3047 59.8359C57.3047 59.9133 57.3328 59.9766 57.3609 59.9766C57.3961 59.9766 57.4664 60.0609 57.5227 60.1664C57.6562 60.4336 58.3312 61.1016 58.4648 61.1016C58.5211 61.1016 58.5703 61.1227 58.5703 61.1508C58.5703 61.2141 58.9148 61.3828 59.0414 61.3828C59.0906 61.3828 59.1328 61.4109 59.1328 61.4531C59.1328 61.4883 59.2312 61.5234 59.3438 61.5234C59.4633 61.5234 59.5547 61.5516 59.5547 61.5938C59.5547 61.6359 59.8781 61.6641 60.3914 61.6641C60.8766 61.6641 61.2492 61.6359 61.2773 61.5938C61.2984 61.5516 61.4109 61.5234 61.5234 61.5234C61.6359 61.5234 61.7484 61.4883 61.7695 61.4531C61.7906 61.4109 61.875 61.3828 61.9523 61.3828C62.0227 61.3828 62.0859 61.3477 62.0859 61.3125C62.0859 61.2703 62.1352 61.2422 62.1984 61.2422C62.3391 61.2422 63.4922 60.082 63.4922 59.9414C63.4922 59.8852 63.5273 59.8359 63.5625 59.8359C63.6047 59.8359 63.6328 59.7375 63.6328 59.625C63.6328 59.5055 63.668 59.4141 63.7031 59.4141C63.7453 59.4141 63.7734 59.3227 63.7734 59.2102C63.7734 59.0906 63.8086 58.9781 63.8438 58.957C63.8859 58.9359 63.9141 58.6055 63.9141 58.2188C63.9141 57.832 63.8859 57.5016 63.8438 57.4805C63.8086 57.4594 63.7734 57.3117 63.7734 57.157C63.7734 57.0094 63.7453 56.8828 63.7031 56.8828C63.668 56.8828 63.6328 56.7562 63.6328 56.6016C63.6328 56.4469 63.6047 56.3203 63.5625 56.3203C63.5273 56.3203 63.4922 56.1938 63.4922 56.0391C63.4922 55.8844 63.4641 55.7578 63.4219 55.7578C63.3867 55.7578 63.3516 55.6313 63.3516 55.4766C63.3516 55.3219 63.3234 55.1953 63.2812 55.1953C63.2461 55.1953 63.2109 55.0688 63.2109 54.9141V54.6328H59.625H56.0391V54.9844Z" fill="#EEEEEE"/>
</svg>
