<svg width="95" height="8" viewBox="0 0 95 8" fill="none" xmlns="http://www.w3.org/2000/svg">
<circle cx="4" cy="4" r="4" fill="#D9D9D9"/>
<circle cx="4" cy="4" r="4" fill="url(#paint0_linear_219_1268)"/>
<circle cx="19" cy="4" r="4" fill="#D9D9D9"/>
<circle cx="19" cy="4" r="4" fill="url(#paint1_linear_219_1268)"/>
<circle cx="34" cy="4" r="4" fill="#D9D9D9"/>
<circle cx="34" cy="4" r="4" fill="url(#paint2_linear_219_1268)"/>
<circle cx="48" cy="4" r="4" fill="#D9D9D9"/>
<circle cx="48" cy="4" r="4" fill="url(#paint3_linear_219_1268)"/>
<circle cx="63" cy="4" r="4" fill="#D9D9D9"/>
<circle cx="63" cy="4" r="4" fill="url(#paint4_linear_219_1268)"/>
<circle cx="78" cy="4" r="4" fill="#D9D9D9"/>
<circle cx="78" cy="4" r="4" fill="url(#paint5_linear_219_1268)"/>
<path d="M91 4C91 6.20914 92.7909 8 95 8L95 -1.74846e-07C92.7909 -7.8281e-08 91 1.79086 91 4Z" fill="#D9D9D9"/>
<path d="M91 4C91 6.20914 92.7909 8 95 8L95 -1.74846e-07C92.7909 -7.8281e-08 91 1.79086 91 4Z" fill="url(#paint6_linear_219_1268)"/>
<defs>
<linearGradient id="paint0_linear_219_1268" x1="4.96842" y1="6.5" x2="7.67305" y2="-3.15756" gradientUnits="userSpaceOnUse">
<stop stop-opacity="0"/>
<stop offset="1"/>
</linearGradient>
<linearGradient id="paint1_linear_219_1268" x1="19.9684" y1="6.5" x2="22.6731" y2="-3.15756" gradientUnits="userSpaceOnUse">
<stop stop-opacity="0"/>
<stop offset="1"/>
</linearGradient>
<linearGradient id="paint2_linear_219_1268" x1="34.9684" y1="6.5" x2="37.6731" y2="-3.15756" gradientUnits="userSpaceOnUse">
<stop stop-opacity="0"/>
<stop offset="1"/>
</linearGradient>
<linearGradient id="paint3_linear_219_1268" x1="48.9684" y1="6.5" x2="51.6731" y2="-3.15756" gradientUnits="userSpaceOnUse">
<stop stop-opacity="0"/>
<stop offset="1"/>
</linearGradient>
<linearGradient id="paint4_linear_219_1268" x1="63.9684" y1="6.5" x2="66.6731" y2="-3.15756" gradientUnits="userSpaceOnUse">
<stop stop-opacity="0"/>
<stop offset="1"/>
</linearGradient>
<linearGradient id="paint5_linear_219_1268" x1="78.9684" y1="6.5" x2="81.6731" y2="-3.15756" gradientUnits="userSpaceOnUse">
<stop stop-opacity="0"/>
<stop offset="1"/>
</linearGradient>
<linearGradient id="paint6_linear_219_1268" x1="94.25" y1="3.03158" x2="89.1426" y2="2.31641" gradientUnits="userSpaceOnUse">
<stop stop-opacity="0"/>
<stop offset="1"/>
</linearGradient>
</defs>
</svg>
