<svg width="128" height="128" viewBox="0 0 128 128" fill="none" xmlns="http://www.w3.org/2000/svg">
<path d="M16 55.5555C16 38.5017 16 29.9748 18.0134 27.1061C20.0268 24.2375 28.0444 21.4931 44.0795 16.0042L47.1345 14.9584C55.4932 12.0972 59.6726 10.6666 64 10.6666C68.3274 10.6666 72.5068 12.0972 80.8655 14.9585L83.9205 16.0042C99.9556 21.4931 107.973 24.2375 109.987 27.1061C112 29.9748 112 38.5017 112 55.5555C112 58.1314 112 60.9248 112 63.9539C112 94.0236 89.3922 108.616 75.2077 114.812C71.3599 116.493 69.436 117.333 64 117.333C58.5639 117.333 56.6401 116.493 52.7923 114.812C38.6078 108.616 16 94.0236 16 63.9539C16 60.9248 16 58.1314 16 55.5555Z" stroke="#5287DE" stroke-width="9.41176"/>
</svg>
