<svg width="128" height="128" viewBox="0 0 128 128" fill="none" xmlns="http://www.w3.org/2000/svg">
<rect width="128" height="128" fill="black"/>
<path fill-rule="evenodd" clip-rule="evenodd" d="M22 34.2153L22.9923 49.2966C26.469 46.4191 31.7856 44.9803 38.9423 44.9803C45.5761 44.9803 50.7357 46.216 54.4212 48.6874C58.1066 51.1155 59.9493 54.5191 59.9493 58.8983V59.5486C59.9493 62.2802 58.9521 64.86 56.9576 67.288C54.9631 69.6727 51.7763 72.0574 47.3971 74.4421L40.3731 78.2793H60.4696V88.4901H25.571L27.6576 120.204L105 106.968L101.909 59.9862C97.5331 64.6209 94.0358 69.1143 91.4171 73.4666C88.382 78.5828 86.8645 83.0487 86.8645 86.8642V88.4901H71.7109V86.8642C71.7109 82.8753 73.1633 78.366 76.0683 73.3365C79.0167 68.2636 83.2441 62.9956 88.7506 57.5325H60.8497V45.8258H100.977L98.4884 8L22 34.2153ZM24.6806 74.9575L23.8722 62.6704H30.6176V61.3697C30.6176 59.5053 31.333 58.0961 32.7638 57.1423C34.238 56.145 36.3625 55.6464 39.1374 55.6464C41.6088 55.6464 43.4949 55.9933 44.7957 56.687C46.0964 57.3807 46.7468 58.3996 46.7468 59.7437V60.264C46.7468 61.2179 46.3132 62.1067 45.446 62.9305C44.6222 63.7544 42.9963 64.8383 40.5683 66.1824L24.6806 74.9575Z" fill="white"/>
</svg>
