<svg width="75" height="75" viewBox="0 0 75 75" fill="none" xmlns="http://www.w3.org/2000/svg">
<rect width="75" height="75" rx="37.5" fill="url(#paint0_linear_243_1649)"/>
<path d="M31.2586 37.596C31.2586 34.1413 34.0576 31.34 37.5114 31.34C40.9651 31.34 43.7656 34.1413 43.7656 37.596C43.7656 41.0507 40.9651 43.8521 37.5114 43.8521C34.0576 43.8521 31.2586 41.0507 31.2586 37.596ZM27.8777 37.596C27.8777 42.9182 32.1907 47.2325 37.5114 47.2325C42.8321 47.2325 47.145 42.9182 47.145 37.596C47.145 32.2738 42.8321 27.9596 37.5114 27.9596C32.1907 27.9596 27.8777 32.2738 27.8777 37.596ZM45.2751 27.5775C45.2749 28.0229 45.4068 28.4583 45.654 28.8288C45.9012 29.1992 46.2527 29.488 46.664 29.6586C47.0754 29.8292 47.528 29.874 47.9648 29.7873C48.4015 29.7006 48.8028 29.4862 49.1177 29.1714C49.4327 28.8566 49.6473 28.4554 49.7343 28.0186C49.8214 27.5818 49.777 27.129 49.6067 26.7174C49.4365 26.3058 49.1481 25.954 48.778 25.7064C48.4078 25.4588 47.9726 25.3265 47.5273 25.3264H47.5264C46.9296 25.3266 46.3572 25.5639 45.9351 25.986C45.513 26.408 45.2756 26.9804 45.2751 27.5775ZM29.9318 52.8716C28.1027 52.7883 27.1085 52.4835 26.4478 52.2261C25.5719 51.885 24.9469 51.4787 24.2898 50.8223C23.6327 50.1659 23.226 49.5414 22.8865 48.6652C22.6289 48.0046 22.3242 47.0098 22.2411 45.1801C22.1501 43.202 22.1319 42.6078 22.1319 37.5962C22.1319 32.5846 22.1516 31.992 22.2411 30.0122C22.3244 28.1825 22.6313 27.1897 22.8865 26.5271C23.2275 25.651 23.6336 25.0258 24.2898 24.3685C24.946 23.7112 25.5704 23.3044 26.4478 22.9648C27.1082 22.7071 28.1027 22.4024 29.9318 22.3192C31.9094 22.2282 32.5035 22.21 37.5114 22.21C42.5193 22.21 43.1139 22.2297 45.0932 22.3192C46.9223 22.4025 47.9149 22.7095 48.5772 22.9648C49.4531 23.3044 50.0781 23.7121 50.7352 24.3685C51.3923 25.0249 51.7975 25.651 52.1385 26.5271C52.3961 27.1877 52.7008 28.1825 52.7839 30.0122C52.8749 31.992 52.893 32.5846 52.893 37.5962C52.893 42.6078 52.8749 43.2003 52.7839 45.1801C52.7006 47.0098 52.3944 48.0043 52.1385 48.6652C51.7975 49.5414 51.3914 50.1665 50.7352 50.8223C50.079 51.4781 49.4531 51.885 48.5772 52.2261C47.9168 52.4837 46.9223 52.7885 45.0932 52.8716C43.1156 52.9626 42.5215 52.9808 37.5114 52.9808C32.5012 52.9808 31.9088 52.9626 29.9318 52.8716ZM29.7765 18.943C27.7792 19.034 26.4145 19.3508 25.2226 19.8147C23.9883 20.2937 22.9433 20.9365 21.8992 21.9793C20.855 23.0221 20.2141 24.069 19.7352 25.3037C19.2714 26.4967 18.9547 27.8611 18.8637 29.8589C18.7713 31.8599 18.7501 32.4996 18.7501 37.596C18.7501 42.6924 18.7713 43.3322 18.8637 45.3331C18.9547 47.3311 19.2714 48.6954 19.7352 49.8883C20.2141 51.1223 20.8551 52.1704 21.8992 53.2127C22.9432 54.2551 23.9883 54.8969 25.2226 55.3774C26.4167 55.8413 27.7792 56.158 29.7765 56.249C31.7779 56.34 32.4164 56.3627 37.5114 56.3627C42.6063 56.3627 43.2459 56.3415 45.2463 56.249C47.2437 56.158 48.6075 55.8413 49.8001 55.3774C51.0337 54.8969 52.0794 54.2556 53.1236 53.2127C54.1678 52.1699 54.8073 51.1223 55.2876 49.8883C55.7514 48.6954 56.0695 47.331 56.159 45.3331C56.25 43.3307 56.2711 42.6924 56.2711 37.596C56.2711 32.4996 56.25 31.8599 56.159 29.8589C56.068 27.8609 55.7514 26.4959 55.2876 25.3037C54.8073 24.0697 54.1661 23.0238 53.1236 21.9793C52.0811 20.9348 51.0337 20.2937 49.8016 19.8147C48.6075 19.3508 47.2435 19.0325 45.2478 18.943C43.2474 18.852 42.6078 18.8293 37.5129 18.8293C32.4179 18.8293 31.7779 18.8505 29.7765 18.943Z" fill="white"/>
<defs>
<linearGradient id="paint0_linear_243_1649" x1="73.5585" y1="75" x2="-1.4415" y2="-2.01879e-06" gradientUnits="userSpaceOnUse">
<stop stop-color="#FBE18A"/>
<stop offset="0.21" stop-color="#FCBB45"/>
<stop offset="0.38" stop-color="#F75274"/>
<stop offset="0.52" stop-color="#D53692"/>
<stop offset="0.74" stop-color="#8F39CE"/>
<stop offset="1" stop-color="#5B4FE9"/>
</linearGradient>
</defs>
</svg>
