<svg width="74" height="74" viewBox="0 0 74 74" fill="none" xmlns="http://www.w3.org/2000/svg">
<g clip-path="url(#clip0_1_119)">
<path d="M20.7476 60V13.1H39.8426C44.22 13.1 47.8156 13.7477 50.6296 15.043C53.4436 16.2937 55.5206 18.125 56.8606 20.537C58.2453 22.9043 58.9376 25.763 58.9376 29.113C58.9376 32.4183 58.2453 35.277 56.8606 37.689C55.5206 40.101 53.4436 41.9547 50.6296 43.25C47.8156 44.5007 44.22 45.126 39.8426 45.126H32.8076V60H20.7476ZM32.8076 35.21H38.5026C41.5846 35.21 43.751 34.6963 45.0016 33.669C46.2523 32.6417 46.8776 31.123 46.8776 29.113C46.8776 27.103 46.2523 25.5843 45.0016 24.557C43.751 23.5297 41.5846 23.016 38.5026 23.016H32.8076V35.21Z" fill="white"/>
<rect x="0.5" y="0.5" width="73" height="73" rx="6.5" stroke="white"/>
</g>
<defs>
<clipPath id="clip0_1_119">
<rect width="74" height="74" fill="white"/>
</clipPath>
</defs>
</svg>
