<svg width="68" height="68" viewBox="0 0 68 68" fill="none" xmlns="http://www.w3.org/2000/svg">
<path d="M34.3118 67.0977C52.7199 67.0977 67.6427 52.1749 67.6427 33.7669C67.6427 15.3588 52.7199 0.436035 34.3118 0.436035C15.9038 0.436035 0.981018 15.3588 0.981018 33.7669C0.981018 52.1749 15.9038 67.0977 34.3118 67.0977Z" fill="#34AADF"/>
<path d="M15.2694 33.0368C15.2694 33.0368 31.7798 26.0128 37.5058 23.5394C39.7009 22.5502 47.1449 19.3843 47.1449 19.3843C47.1449 19.3843 50.5806 17.9993 50.2943 21.3629C50.1988 22.748 49.4353 27.5956 48.6719 32.839C47.5266 40.2589 46.2859 48.3712 46.2859 48.3712C46.2859 48.3712 46.0951 50.6467 44.4727 51.0424C42.8503 51.4381 40.178 49.6574 39.7009 49.2616C39.3191 48.9649 32.5432 44.5129 30.0619 42.3364C29.3938 41.7428 28.6304 40.5557 30.1573 39.1706C33.593 35.9059 37.6967 31.8497 40.178 29.2775C41.3233 28.0903 42.4685 25.3202 37.6967 28.6838C30.9208 33.5315 24.2403 38.0824 24.2403 38.0824C24.2403 38.0824 22.7133 39.0716 19.8503 38.1812C16.9871 37.291 13.6469 36.1037 13.6469 36.1037C13.6469 36.1037 11.3566 34.6198 15.2694 33.0368Z" fill="white"/>
</svg>
